<mxfile host="app.diagrams.net" modified="2021-12-10T09:04:19.810Z" agent="5.0 (Macintosh; Intel Mac OS X 10_13_6) AppleWebKit/537.36 (KHTML, like Gecko) Chrome/96.0.4664.45 Safari/537.36 OPR/82.0.4227.23" etag="r-RtDotN666FataNRc8K" version="15.9.1" type="github">
  <diagram id="6txrn4qJPow3WuWQd3wu" name="Page-1">
    <mxGraphModel dx="1426" dy="730" grid="1" gridSize="10" guides="1" tooltips="1" connect="1" arrows="1" fold="1" page="1" pageScale="1" pageWidth="2336" pageHeight="1654" math="0" shadow="0">
      <root>
        <mxCell id="0" />
        <mxCell id="1" parent="0" />
        <mxCell id="CLJaS080JUazORsA9r7G-14" style="edgeStyle=orthogonalEdgeStyle;rounded=0;orthogonalLoop=1;jettySize=auto;html=1;exitX=0.5;exitY=1;exitDx=0;exitDy=0;entryX=0.5;entryY=0;entryDx=0;entryDy=0;" parent="1" source="CLJaS080JUazORsA9r7G-1" target="CLJaS080JUazORsA9r7G-2" edge="1">
          <mxGeometry relative="1" as="geometry" />
        </mxCell>
        <mxCell id="CLJaS080JUazORsA9r7G-1" value="CAOS" style="rounded=0;whiteSpace=wrap;html=1;" parent="1" vertex="1">
          <mxGeometry x="880" y="130" width="80" height="40" as="geometry" />
        </mxCell>
        <mxCell id="CLJaS080JUazORsA9r7G-15" style="edgeStyle=orthogonalEdgeStyle;rounded=0;orthogonalLoop=1;jettySize=auto;html=1;exitX=0.5;exitY=1;exitDx=0;exitDy=0;entryX=0.5;entryY=0;entryDx=0;entryDy=0;" parent="1" source="CLJaS080JUazORsA9r7G-2" target="CLJaS080JUazORsA9r7G-3" edge="1">
          <mxGeometry relative="1" as="geometry" />
        </mxCell>
        <mxCell id="CLJaS080JUazORsA9r7G-223" style="edgeStyle=orthogonalEdgeStyle;curved=1;orthogonalLoop=1;jettySize=auto;html=1;exitX=1;exitY=0.5;exitDx=0;exitDy=0;entryX=0;entryY=0.25;entryDx=0;entryDy=0;endArrow=classic;endFill=1;" parent="1" source="CLJaS080JUazORsA9r7G-2" target="CLJaS080JUazORsA9r7G-221" edge="1">
          <mxGeometry relative="1" as="geometry" />
        </mxCell>
        <mxCell id="CLJaS080JUazORsA9r7G-2" value="GAIA - GEA (TERRA)" style="rounded=0;whiteSpace=wrap;html=1;" parent="1" vertex="1">
          <mxGeometry x="880" y="190" width="80" height="40" as="geometry" />
        </mxCell>
        <mxCell id="CLJaS080JUazORsA9r7G-11" style="edgeStyle=orthogonalEdgeStyle;rounded=0;orthogonalLoop=1;jettySize=auto;html=1;exitX=0;exitY=0.5;exitDx=0;exitDy=0;entryX=0.5;entryY=0;entryDx=0;entryDy=0;" parent="1" source="CLJaS080JUazORsA9r7G-3" target="CLJaS080JUazORsA9r7G-9" edge="1">
          <mxGeometry relative="1" as="geometry" />
        </mxCell>
        <mxCell id="CLJaS080JUazORsA9r7G-13" style="edgeStyle=orthogonalEdgeStyle;rounded=0;orthogonalLoop=1;jettySize=auto;html=1;exitX=0;exitY=0.5;exitDx=0;exitDy=0;entryX=0.5;entryY=0;entryDx=0;entryDy=0;" parent="1" source="CLJaS080JUazORsA9r7G-3" target="CLJaS080JUazORsA9r7G-8" edge="1">
          <mxGeometry relative="1" as="geometry" />
        </mxCell>
        <mxCell id="CLJaS080JUazORsA9r7G-16" style="edgeStyle=orthogonalEdgeStyle;rounded=0;orthogonalLoop=1;jettySize=auto;html=1;exitX=0.5;exitY=1;exitDx=0;exitDy=0;entryX=0.5;entryY=0;entryDx=0;entryDy=0;" parent="1" source="CLJaS080JUazORsA9r7G-3" target="CLJaS080JUazORsA9r7G-5" edge="1">
          <mxGeometry relative="1" as="geometry" />
        </mxCell>
        <mxCell id="CLJaS080JUazORsA9r7G-17" style="edgeStyle=orthogonalEdgeStyle;rounded=0;orthogonalLoop=1;jettySize=auto;html=1;exitX=0;exitY=1;exitDx=0;exitDy=0;entryX=1;entryY=0;entryDx=0;entryDy=0;" parent="1" source="CLJaS080JUazORsA9r7G-3" target="CLJaS080JUazORsA9r7G-4" edge="1">
          <mxGeometry relative="1" as="geometry" />
        </mxCell>
        <mxCell id="CLJaS080JUazORsA9r7G-18" style="edgeStyle=orthogonalEdgeStyle;rounded=0;orthogonalLoop=1;jettySize=auto;html=1;exitX=1;exitY=1;exitDx=0;exitDy=0;entryX=0;entryY=0;entryDx=0;entryDy=0;" parent="1" source="CLJaS080JUazORsA9r7G-3" target="CLJaS080JUazORsA9r7G-6" edge="1">
          <mxGeometry relative="1" as="geometry" />
        </mxCell>
        <mxCell id="CLJaS080JUazORsA9r7G-3" value="URANO (CIELO)" style="rounded=0;whiteSpace=wrap;html=1;" parent="1" vertex="1">
          <mxGeometry x="880" y="250" width="80" height="40" as="geometry" />
        </mxCell>
        <mxCell id="CLJaS080JUazORsA9r7G-21" style="edgeStyle=orthogonalEdgeStyle;rounded=0;orthogonalLoop=1;jettySize=auto;html=1;exitX=0;exitY=1;exitDx=0;exitDy=0;entryX=0.638;entryY=-0.075;entryDx=0;entryDy=0;entryPerimeter=0;" parent="1" source="CLJaS080JUazORsA9r7G-4" target="CLJaS080JUazORsA9r7G-7" edge="1">
          <mxGeometry relative="1" as="geometry" />
        </mxCell>
        <mxCell id="CLJaS080JUazORsA9r7G-22" style="edgeStyle=orthogonalEdgeStyle;rounded=0;orthogonalLoop=1;jettySize=auto;html=1;exitX=1;exitY=1;exitDx=0;exitDy=0;entryX=0.363;entryY=-0.075;entryDx=0;entryDy=0;entryPerimeter=0;" parent="1" source="CLJaS080JUazORsA9r7G-4" target="CLJaS080JUazORsA9r7G-10" edge="1">
          <mxGeometry relative="1" as="geometry" />
        </mxCell>
        <mxCell id="CLJaS080JUazORsA9r7G-94" style="edgeStyle=orthogonalEdgeStyle;rounded=1;orthogonalLoop=1;jettySize=auto;html=1;exitX=0;exitY=1;exitDx=0;exitDy=0;entryX=1;entryY=0.5;entryDx=0;entryDy=0;endArrow=classic;endFill=1;" parent="1" source="CLJaS080JUazORsA9r7G-4" target="CLJaS080JUazORsA9r7G-91" edge="1">
          <mxGeometry relative="1" as="geometry">
            <Array as="points">
              <mxPoint x="780" y="370" />
              <mxPoint x="680" y="370" />
              <mxPoint x="680" y="400" />
            </Array>
          </mxGeometry>
        </mxCell>
        <mxCell id="CLJaS080JUazORsA9r7G-123" style="edgeStyle=orthogonalEdgeStyle;curved=1;orthogonalLoop=1;jettySize=auto;html=1;exitX=1;exitY=1;exitDx=0;exitDy=0;entryX=0;entryY=0.25;entryDx=0;entryDy=0;endArrow=classic;endFill=1;" parent="1" source="CLJaS080JUazORsA9r7G-4" target="CLJaS080JUazORsA9r7G-103" edge="1">
          <mxGeometry relative="1" as="geometry" />
        </mxCell>
        <mxCell id="CLJaS080JUazORsA9r7G-124" style="edgeStyle=orthogonalEdgeStyle;curved=1;orthogonalLoop=1;jettySize=auto;html=1;exitX=1;exitY=1;exitDx=0;exitDy=0;entryX=0.5;entryY=0;entryDx=0;entryDy=0;endArrow=classic;endFill=1;" parent="1" source="CLJaS080JUazORsA9r7G-4" target="CLJaS080JUazORsA9r7G-104" edge="1">
          <mxGeometry relative="1" as="geometry" />
        </mxCell>
        <mxCell id="CLJaS080JUazORsA9r7G-145" style="edgeStyle=orthogonalEdgeStyle;curved=1;orthogonalLoop=1;jettySize=auto;html=1;exitX=1;exitY=1;exitDx=0;exitDy=0;endArrow=classic;endFill=1;entryX=0;entryY=1;entryDx=0;entryDy=0;" parent="1" source="CLJaS080JUazORsA9r7G-4" target="CLJaS080JUazORsA9r7G-146" edge="1">
          <mxGeometry relative="1" as="geometry">
            <mxPoint x="1259.9999999999995" y="180" as="targetPoint" />
          </mxGeometry>
        </mxCell>
        <mxCell id="CLJaS080JUazORsA9r7G-4" value="TITANI" style="rounded=0;whiteSpace=wrap;html=1;fillColor=#fff2cc;strokeColor=#d6b656;" parent="1" vertex="1">
          <mxGeometry x="780" y="310" width="80" height="40" as="geometry" />
        </mxCell>
        <mxCell id="CLJaS080JUazORsA9r7G-5" value="CICLOPI" style="rounded=0;whiteSpace=wrap;html=1;" parent="1" vertex="1">
          <mxGeometry x="880" y="310" width="80" height="40" as="geometry" />
        </mxCell>
        <mxCell id="CLJaS080JUazORsA9r7G-6" value="CENTIMANI" style="rounded=0;whiteSpace=wrap;html=1;" parent="1" vertex="1">
          <mxGeometry x="980" y="310" width="80" height="40" as="geometry" />
        </mxCell>
        <mxCell id="CLJaS080JUazORsA9r7G-24" style="edgeStyle=orthogonalEdgeStyle;rounded=0;orthogonalLoop=1;jettySize=auto;html=1;exitX=1;exitY=1;exitDx=0;exitDy=0;entryX=0.5;entryY=0;entryDx=0;entryDy=0;" parent="1" source="CLJaS080JUazORsA9r7G-7" target="CLJaS080JUazORsA9r7G-23" edge="1">
          <mxGeometry relative="1" as="geometry" />
        </mxCell>
        <mxCell id="upMYEy9RldOQQddmKR3E-1" style="edgeStyle=orthogonalEdgeStyle;orthogonalLoop=1;jettySize=auto;html=1;exitX=0.25;exitY=0;exitDx=0;exitDy=0;dashed=1;curved=1;endArrow=none;endFill=0;" parent="1" source="CLJaS080JUazORsA9r7G-7" edge="1">
          <mxGeometry relative="1" as="geometry">
            <mxPoint x="810" y="270" as="targetPoint" />
            <Array as="points">
              <mxPoint x="748" y="300" />
              <mxPoint x="810" y="300" />
            </Array>
          </mxGeometry>
        </mxCell>
        <mxCell id="CLJaS080JUazORsA9r7G-7" value="CRONO" style="rounded=0;whiteSpace=wrap;html=1;fillColor=#fff2cc;strokeColor=#d6b656;" parent="1" vertex="1">
          <mxGeometry x="728.25" y="380" width="80" height="40" as="geometry" />
        </mxCell>
        <mxCell id="CLJaS080JUazORsA9r7G-64" style="edgeStyle=orthogonalEdgeStyle;rounded=0;orthogonalLoop=1;jettySize=auto;html=1;exitX=0.25;exitY=1;exitDx=0;exitDy=0;entryX=0.25;entryY=0;entryDx=0;entryDy=0;endArrow=none;endFill=0;dashed=1;" parent="1" source="CLJaS080JUazORsA9r7G-8" target="CLJaS080JUazORsA9r7G-62" edge="1">
          <mxGeometry relative="1" as="geometry" />
        </mxCell>
        <mxCell id="CLJaS080JUazORsA9r7G-8" value="AFRODITE" style="rounded=0;whiteSpace=wrap;html=1;" parent="1" vertex="1">
          <mxGeometry x="570" y="310" width="80" height="40" as="geometry" />
        </mxCell>
        <mxCell id="CLJaS080JUazORsA9r7G-9" value="ERINNI" style="rounded=0;whiteSpace=wrap;html=1;" parent="1" vertex="1">
          <mxGeometry x="660" y="310" width="80" height="40" as="geometry" />
        </mxCell>
        <mxCell id="CLJaS080JUazORsA9r7G-25" style="edgeStyle=orthogonalEdgeStyle;rounded=0;orthogonalLoop=1;jettySize=auto;html=1;exitX=0;exitY=1;exitDx=0;exitDy=0;entryX=0.5;entryY=0;entryDx=0;entryDy=0;" parent="1" source="CLJaS080JUazORsA9r7G-10" target="CLJaS080JUazORsA9r7G-23" edge="1">
          <mxGeometry relative="1" as="geometry" />
        </mxCell>
        <mxCell id="CLJaS080JUazORsA9r7G-10" value="REA" style="rounded=0;whiteSpace=wrap;html=1;fillColor=#fff2cc;strokeColor=#d6b656;" parent="1" vertex="1">
          <mxGeometry x="810" y="380" width="80" height="40" as="geometry" />
        </mxCell>
        <mxCell id="CLJaS080JUazORsA9r7G-30" style="edgeStyle=orthogonalEdgeStyle;orthogonalLoop=1;jettySize=auto;html=1;exitX=0;exitY=0.5;exitDx=0;exitDy=0;entryX=0.5;entryY=0;entryDx=0;entryDy=0;curved=1;" parent="1" source="CLJaS080JUazORsA9r7G-23" target="CLJaS080JUazORsA9r7G-27" edge="1">
          <mxGeometry relative="1" as="geometry" />
        </mxCell>
        <mxCell id="CLJaS080JUazORsA9r7G-32" style="edgeStyle=orthogonalEdgeStyle;curved=1;orthogonalLoop=1;jettySize=auto;html=1;exitX=1;exitY=0.5;exitDx=0;exitDy=0;entryX=0.5;entryY=0;entryDx=0;entryDy=0;" parent="1" source="CLJaS080JUazORsA9r7G-23" target="CLJaS080JUazORsA9r7G-29" edge="1">
          <mxGeometry relative="1" as="geometry" />
        </mxCell>
        <mxCell id="CLJaS080JUazORsA9r7G-34" style="edgeStyle=orthogonalEdgeStyle;curved=1;orthogonalLoop=1;jettySize=auto;html=1;exitX=0.5;exitY=1;exitDx=0;exitDy=0;entryX=0.5;entryY=0;entryDx=0;entryDy=0;" parent="1" source="CLJaS080JUazORsA9r7G-23" target="CLJaS080JUazORsA9r7G-28" edge="1">
          <mxGeometry relative="1" as="geometry" />
        </mxCell>
        <mxCell id="CLJaS080JUazORsA9r7G-67" style="edgeStyle=orthogonalEdgeStyle;rounded=1;orthogonalLoop=1;jettySize=auto;html=1;exitX=0.25;exitY=1;exitDx=0;exitDy=0;entryX=1;entryY=0.25;entryDx=0;entryDy=0;endArrow=classic;endFill=1;" parent="1" source="CLJaS080JUazORsA9r7G-23" target="CLJaS080JUazORsA9r7G-61" edge="1">
          <mxGeometry relative="1" as="geometry" />
        </mxCell>
        <mxCell id="CLJaS080JUazORsA9r7G-119" style="edgeStyle=orthogonalEdgeStyle;orthogonalLoop=1;jettySize=auto;html=1;exitX=1;exitY=0.25;exitDx=0;exitDy=0;entryX=0.25;entryY=0;entryDx=0;entryDy=0;endArrow=classic;endFill=1;curved=1;" parent="1" source="CLJaS080JUazORsA9r7G-23" target="CLJaS080JUazORsA9r7G-116" edge="1">
          <mxGeometry relative="1" as="geometry" />
        </mxCell>
        <mxCell id="CLJaS080JUazORsA9r7G-23" value="dei" style="text;html=1;strokeColor=none;fillColor=none;align=center;verticalAlign=middle;whiteSpace=wrap;rounded=0;" parent="1" vertex="1">
          <mxGeometry x="780" y="440" width="60" height="30" as="geometry" />
        </mxCell>
        <mxCell id="CLJaS080JUazORsA9r7G-42" style="edgeStyle=orthogonalEdgeStyle;curved=1;orthogonalLoop=1;jettySize=auto;html=1;exitX=0;exitY=0.5;exitDx=0;exitDy=0;entryX=0.5;entryY=0;entryDx=0;entryDy=0;" parent="1" source="CLJaS080JUazORsA9r7G-27" target="CLJaS080JUazORsA9r7G-41" edge="1">
          <mxGeometry relative="1" as="geometry" />
        </mxCell>
        <mxCell id="CLJaS080JUazORsA9r7G-51" style="edgeStyle=orthogonalEdgeStyle;curved=1;orthogonalLoop=1;jettySize=auto;html=1;exitX=0;exitY=1;exitDx=0;exitDy=0;entryX=0.75;entryY=0;entryDx=0;entryDy=0;endArrow=none;endFill=0;dashed=1;" parent="1" source="CLJaS080JUazORsA9r7G-27" target="CLJaS080JUazORsA9r7G-50" edge="1">
          <mxGeometry relative="1" as="geometry">
            <Array as="points">
              <mxPoint x="370" y="540" />
              <mxPoint x="370" y="590" />
              <mxPoint x="310" y="590" />
            </Array>
          </mxGeometry>
        </mxCell>
        <mxCell id="CLJaS080JUazORsA9r7G-97" style="edgeStyle=orthogonalEdgeStyle;rounded=1;orthogonalLoop=1;jettySize=auto;html=1;exitX=0.25;exitY=1;exitDx=0;exitDy=0;entryX=0.907;entryY=-0.004;entryDx=0;entryDy=0;entryPerimeter=0;endArrow=none;endFill=0;dashed=1;" parent="1" source="CLJaS080JUazORsA9r7G-27" target="CLJaS080JUazORsA9r7G-88" edge="1">
          <mxGeometry relative="1" as="geometry" />
        </mxCell>
        <mxCell id="CLJaS080JUazORsA9r7G-27" value="ZEUS" style="rounded=0;whiteSpace=wrap;html=1;fillColor=#f8cecc;strokeColor=#b85450;" parent="1" vertex="1">
          <mxGeometry x="360" y="500" width="80" height="40" as="geometry" />
        </mxCell>
        <mxCell id="CLJaS080JUazORsA9r7G-28" value="ADE" style="rounded=0;whiteSpace=wrap;html=1;" parent="1" vertex="1">
          <mxGeometry x="888" y="570" width="80" height="40" as="geometry" />
        </mxCell>
        <mxCell id="CLJaS080JUazORsA9r7G-29" value="POSEIDONE" style="rounded=0;whiteSpace=wrap;html=1;" parent="1" vertex="1">
          <mxGeometry x="1290" y="590" width="80" height="40" as="geometry" />
        </mxCell>
        <mxCell id="CLJaS080JUazORsA9r7G-35" value="PERSEFONE" style="rounded=0;whiteSpace=wrap;html=1;" parent="1" vertex="1">
          <mxGeometry x="968" y="570" width="80" height="40" as="geometry" />
        </mxCell>
        <mxCell id="CLJaS080JUazORsA9r7G-120" style="edgeStyle=orthogonalEdgeStyle;curved=1;orthogonalLoop=1;jettySize=auto;html=1;exitX=0;exitY=1;exitDx=0;exitDy=0;entryX=0.25;entryY=0;entryDx=0;entryDy=0;endArrow=classic;endFill=1;" parent="1" source="CLJaS080JUazORsA9r7G-36" target="CLJaS080JUazORsA9r7G-60" edge="1">
          <mxGeometry relative="1" as="geometry" />
        </mxCell>
        <mxCell id="CLJaS080JUazORsA9r7G-36" value="ERA" style="rounded=0;whiteSpace=wrap;html=1;" parent="1" vertex="1">
          <mxGeometry x="440" y="500" width="80" height="40" as="geometry" />
        </mxCell>
        <mxCell id="CLJaS080JUazORsA9r7G-47" style="edgeStyle=orthogonalEdgeStyle;curved=1;orthogonalLoop=1;jettySize=auto;html=1;exitX=1;exitY=0.5;exitDx=0;exitDy=0;entryX=0.5;entryY=0;entryDx=0;entryDy=0;" parent="1" source="CLJaS080JUazORsA9r7G-37" target="CLJaS080JUazORsA9r7G-45" edge="1">
          <mxGeometry relative="1" as="geometry" />
        </mxCell>
        <mxCell id="CLJaS080JUazORsA9r7G-37" value="PROMETEO" style="rounded=0;whiteSpace=wrap;html=1;fillColor=#fff2cc;strokeColor=#d6b656;" parent="1" vertex="1">
          <mxGeometry x="900" y="380" width="80" height="40" as="geometry" />
        </mxCell>
        <mxCell id="CLJaS080JUazORsA9r7G-39" value="dal seme" style="text;html=1;strokeColor=none;fillColor=none;align=center;verticalAlign=middle;whiteSpace=wrap;rounded=0;" parent="1" vertex="1">
          <mxGeometry x="560" y="280" width="50" height="30" as="geometry" />
        </mxCell>
        <mxCell id="CLJaS080JUazORsA9r7G-40" value="dal sangue" style="text;html=1;strokeColor=none;fillColor=none;align=center;verticalAlign=middle;whiteSpace=wrap;rounded=0;" parent="1" vertex="1">
          <mxGeometry x="700" y="280" width="50" height="30" as="geometry" />
        </mxCell>
        <mxCell id="CLJaS080JUazORsA9r7G-41" value="PANDORA" style="rounded=0;whiteSpace=wrap;html=1;fillColor=#d5e8d4;strokeColor=#82b366;" parent="1" vertex="1">
          <mxGeometry x="110" y="550" width="80" height="40" as="geometry" />
        </mxCell>
        <mxCell id="CLJaS080JUazORsA9r7G-43" value="prima donna" style="text;html=1;strokeColor=none;fillColor=none;align=center;verticalAlign=middle;whiteSpace=wrap;rounded=0;" parent="1" vertex="1">
          <mxGeometry x="100" y="520" width="60" height="30" as="geometry" />
        </mxCell>
        <mxCell id="CLJaS080JUazORsA9r7G-45" value="DEUCALIONE" style="rounded=0;whiteSpace=wrap;html=1;fillColor=#d5e8d4;strokeColor=#82b366;" parent="1" vertex="1">
          <mxGeometry x="1290" y="470" width="80" height="40" as="geometry" />
        </mxCell>
        <mxCell id="CLJaS080JUazORsA9r7G-46" value="PIRRA" style="rounded=0;whiteSpace=wrap;html=1;fillColor=#d5e8d4;strokeColor=#82b366;" parent="1" vertex="1">
          <mxGeometry x="1370" y="470" width="80" height="40" as="geometry" />
        </mxCell>
        <mxCell id="CLJaS080JUazORsA9r7G-48" value="(DILUVIO)" style="text;html=1;strokeColor=none;fillColor=none;align=center;verticalAlign=middle;whiteSpace=wrap;rounded=0;" parent="1" vertex="1">
          <mxGeometry x="1340" y="440" width="60" height="30" as="geometry" />
        </mxCell>
        <mxCell id="CLJaS080JUazORsA9r7G-57" style="edgeStyle=orthogonalEdgeStyle;rounded=0;orthogonalLoop=1;jettySize=auto;html=1;exitX=0;exitY=0;exitDx=0;exitDy=0;entryX=0;entryY=1;entryDx=0;entryDy=0;endArrow=none;endFill=0;" parent="1" source="CLJaS080JUazORsA9r7G-49" target="CLJaS080JUazORsA9r7G-50" edge="1">
          <mxGeometry relative="1" as="geometry" />
        </mxCell>
        <mxCell id="CLJaS080JUazORsA9r7G-49" value="EUROPA" style="rounded=0;whiteSpace=wrap;html=1;fillColor=#d5e8d4;strokeColor=#82b366;" parent="1" vertex="1">
          <mxGeometry x="250" y="650" width="80" height="40" as="geometry" />
        </mxCell>
        <mxCell id="CLJaS080JUazORsA9r7G-58" style="edgeStyle=orthogonalEdgeStyle;rounded=0;orthogonalLoop=1;jettySize=auto;html=1;exitX=0;exitY=1;exitDx=0;exitDy=0;entryX=1;entryY=0.25;entryDx=0;entryDy=0;endArrow=classic;endFill=1;" parent="1" source="CLJaS080JUazORsA9r7G-50" target="CLJaS080JUazORsA9r7G-54" edge="1">
          <mxGeometry relative="1" as="geometry" />
        </mxCell>
        <mxCell id="CLJaS080JUazORsA9r7G-50" value="ZEUS" style="rounded=0;whiteSpace=wrap;html=1;" parent="1" vertex="1">
          <mxGeometry x="250" y="610" width="80" height="40" as="geometry" />
        </mxCell>
        <mxCell id="CLJaS080JUazORsA9r7G-54" value="MINOSSE" style="rounded=0;whiteSpace=wrap;html=1;fillColor=#d5e8d4;strokeColor=#82b366;" parent="1" vertex="1">
          <mxGeometry x="140" y="640" width="80" height="40" as="geometry" />
        </mxCell>
        <mxCell id="CLJaS080JUazORsA9r7G-122" style="edgeStyle=orthogonalEdgeStyle;curved=1;orthogonalLoop=1;jettySize=auto;html=1;exitX=1;exitY=0;exitDx=0;exitDy=0;entryX=0.125;entryY=1;entryDx=0;entryDy=0;entryPerimeter=0;endArrow=none;endFill=0;dashed=1;" parent="1" source="CLJaS080JUazORsA9r7G-60" target="CLJaS080JUazORsA9r7G-121" edge="1">
          <mxGeometry relative="1" as="geometry" />
        </mxCell>
        <mxCell id="CLJaS080JUazORsA9r7G-60" value="EFESTO" style="rounded=0;whiteSpace=wrap;html=1;" parent="1" vertex="1">
          <mxGeometry x="430" y="570" width="80" height="40" as="geometry" />
        </mxCell>
        <mxCell id="CLJaS080JUazORsA9r7G-74" style="edgeStyle=orthogonalEdgeStyle;rounded=1;orthogonalLoop=1;jettySize=auto;html=1;exitX=0;exitY=1;exitDx=0;exitDy=0;entryX=0.5;entryY=0;entryDx=0;entryDy=0;endArrow=classic;endFill=1;" parent="1" source="CLJaS080JUazORsA9r7G-61" target="CLJaS080JUazORsA9r7G-68" edge="1">
          <mxGeometry relative="1" as="geometry" />
        </mxCell>
        <mxCell id="CLJaS080JUazORsA9r7G-61" value="ARES" style="rounded=0;whiteSpace=wrap;html=1;" parent="1" vertex="1">
          <mxGeometry x="670" y="580" width="80" height="40" as="geometry" />
        </mxCell>
        <mxCell id="CLJaS080JUazORsA9r7G-65" style="edgeStyle=orthogonalEdgeStyle;rounded=0;orthogonalLoop=1;jettySize=auto;html=1;exitX=0.25;exitY=1;exitDx=0;exitDy=0;entryX=0.25;entryY=0;entryDx=0;entryDy=0;dashed=1;endArrow=none;endFill=0;" parent="1" source="CLJaS080JUazORsA9r7G-62" target="CLJaS080JUazORsA9r7G-63" edge="1">
          <mxGeometry relative="1" as="geometry" />
        </mxCell>
        <mxCell id="CLJaS080JUazORsA9r7G-62" value="AFRODITE" style="rounded=0;whiteSpace=wrap;html=1;" parent="1" vertex="1">
          <mxGeometry x="570" y="470" width="80" height="40" as="geometry" />
        </mxCell>
        <mxCell id="CLJaS080JUazORsA9r7G-73" style="edgeStyle=orthogonalEdgeStyle;rounded=1;orthogonalLoop=1;jettySize=auto;html=1;exitX=1;exitY=1;exitDx=0;exitDy=0;entryX=0;entryY=1;entryDx=0;entryDy=0;endArrow=none;endFill=0;" parent="1" source="CLJaS080JUazORsA9r7G-63" target="CLJaS080JUazORsA9r7G-61" edge="1">
          <mxGeometry relative="1" as="geometry" />
        </mxCell>
        <mxCell id="CLJaS080JUazORsA9r7G-63" value="AFRODITE" style="rounded=0;whiteSpace=wrap;html=1;" parent="1" vertex="1">
          <mxGeometry x="570" y="580" width="80" height="40" as="geometry" />
        </mxCell>
        <mxCell id="CLJaS080JUazORsA9r7G-68" value="EROS" style="rounded=0;whiteSpace=wrap;html=1;" parent="1" vertex="1">
          <mxGeometry x="630" y="650" width="80" height="40" as="geometry" />
        </mxCell>
        <mxCell id="CLJaS080JUazORsA9r7G-163" style="edgeStyle=orthogonalEdgeStyle;curved=1;orthogonalLoop=1;jettySize=auto;html=1;exitX=0.75;exitY=1;exitDx=0;exitDy=0;entryX=0.75;entryY=0;entryDx=0;entryDy=0;endArrow=classic;endFill=1;dashed=1;" parent="1" source="CLJaS080JUazORsA9r7G-69" target="CLJaS080JUazORsA9r7G-161" edge="1">
          <mxGeometry relative="1" as="geometry">
            <Array as="points">
              <mxPoint x="950" y="690" />
              <mxPoint x="950" y="1050" />
              <mxPoint x="670" y="1050" />
            </Array>
          </mxGeometry>
        </mxCell>
        <mxCell id="CLJaS080JUazORsA9r7G-69" value="ARMONIA" style="rounded=0;whiteSpace=wrap;html=1;" parent="1" vertex="1">
          <mxGeometry x="720" y="650" width="80" height="40" as="geometry" />
        </mxCell>
        <mxCell id="CLJaS080JUazORsA9r7G-70" value="PAURA" style="rounded=0;whiteSpace=wrap;html=1;" parent="1" vertex="1">
          <mxGeometry x="810" y="650" width="80" height="40" as="geometry" />
        </mxCell>
        <mxCell id="CLJaS080JUazORsA9r7G-71" value="TERRORE" style="rounded=0;whiteSpace=wrap;html=1;" parent="1" vertex="1">
          <mxGeometry x="900" y="650" width="80" height="40" as="geometry" />
        </mxCell>
        <mxCell id="CLJaS080JUazORsA9r7G-72" value="ANTEROS" style="rounded=0;whiteSpace=wrap;html=1;" parent="1" vertex="1">
          <mxGeometry x="990" y="650" width="80" height="40" as="geometry" />
        </mxCell>
        <mxCell id="CLJaS080JUazORsA9r7G-76" value="AFRODITE" style="rounded=0;whiteSpace=wrap;html=1;" parent="1" vertex="1">
          <mxGeometry x="570" y="850" width="80" height="40" as="geometry" />
        </mxCell>
        <mxCell id="CLJaS080JUazORsA9r7G-77" style="edgeStyle=orthogonalEdgeStyle;rounded=0;orthogonalLoop=1;jettySize=auto;html=1;exitX=0.25;exitY=1;exitDx=0;exitDy=0;entryX=0.25;entryY=0;entryDx=0;entryDy=0;dashed=1;endArrow=none;endFill=0;" parent="1" source="CLJaS080JUazORsA9r7G-63" target="CLJaS080JUazORsA9r7G-76" edge="1">
          <mxGeometry relative="1" as="geometry">
            <mxPoint x="600" y="550" as="sourcePoint" />
            <mxPoint x="600" y="590" as="targetPoint" />
            <Array as="points">
              <mxPoint x="590" y="670" />
              <mxPoint x="590" y="670" />
            </Array>
          </mxGeometry>
        </mxCell>
        <mxCell id="CLJaS080JUazORsA9r7G-78" value="ADONE" style="rounded=0;whiteSpace=wrap;html=1;fillColor=#d5e8d4;strokeColor=#82b366;" parent="1" vertex="1">
          <mxGeometry x="670" y="850" width="80" height="40" as="geometry" />
        </mxCell>
        <mxCell id="CLJaS080JUazORsA9r7G-79" value="CINIRA" style="rounded=0;whiteSpace=wrap;html=1;fillColor=#d5e8d4;strokeColor=#82b366;" parent="1" vertex="1">
          <mxGeometry x="790" y="740" width="80" height="40" as="geometry" />
        </mxCell>
        <mxCell id="CLJaS080JUazORsA9r7G-82" style="edgeStyle=orthogonalEdgeStyle;rounded=1;orthogonalLoop=1;jettySize=auto;html=1;exitX=1;exitY=1;exitDx=0;exitDy=0;entryX=1;entryY=0.5;entryDx=0;entryDy=0;endArrow=classic;endFill=1;" parent="1" source="CLJaS080JUazORsA9r7G-80" target="CLJaS080JUazORsA9r7G-78" edge="1">
          <mxGeometry relative="1" as="geometry" />
        </mxCell>
        <mxCell id="CLJaS080JUazORsA9r7G-80" value="MIRRA" style="rounded=0;whiteSpace=wrap;html=1;fillColor=#d5e8d4;strokeColor=#82b366;" parent="1" vertex="1">
          <mxGeometry x="750" y="790" width="80" height="40" as="geometry" />
        </mxCell>
        <mxCell id="CLJaS080JUazORsA9r7G-81" value="CINIRA" style="rounded=0;whiteSpace=wrap;html=1;fillColor=#d5e8d4;strokeColor=#82b366;" parent="1" vertex="1">
          <mxGeometry x="830" y="790" width="80" height="40" as="geometry" />
        </mxCell>
        <mxCell id="CLJaS080JUazORsA9r7G-87" style="edgeStyle=orthogonalEdgeStyle;rounded=1;orthogonalLoop=1;jettySize=auto;html=1;exitX=1;exitY=1;exitDx=0;exitDy=0;entryX=0.5;entryY=0;entryDx=0;entryDy=0;endArrow=classic;endFill=1;" parent="1" source="CLJaS080JUazORsA9r7G-83" target="CLJaS080JUazORsA9r7G-86" edge="1">
          <mxGeometry relative="1" as="geometry" />
        </mxCell>
        <mxCell id="CLJaS080JUazORsA9r7G-83" value="AFRODITE" style="rounded=0;whiteSpace=wrap;html=1;" parent="1" vertex="1">
          <mxGeometry x="570" y="920" width="80" height="40" as="geometry" />
        </mxCell>
        <mxCell id="CLJaS080JUazORsA9r7G-84" style="edgeStyle=orthogonalEdgeStyle;rounded=0;orthogonalLoop=1;jettySize=auto;html=1;exitX=0.25;exitY=0;exitDx=0;exitDy=0;entryX=0.25;entryY=1;entryDx=0;entryDy=0;dashed=1;endArrow=none;endFill=0;" parent="1" source="CLJaS080JUazORsA9r7G-83" target="CLJaS080JUazORsA9r7G-76" edge="1">
          <mxGeometry relative="1" as="geometry">
            <mxPoint x="600" y="550" as="sourcePoint" />
            <mxPoint x="600" y="590" as="targetPoint" />
            <Array as="points">
              <mxPoint x="590" y="900" />
              <mxPoint x="590" y="900" />
            </Array>
          </mxGeometry>
        </mxCell>
        <mxCell id="CLJaS080JUazORsA9r7G-85" value="ANCHISE" style="rounded=0;whiteSpace=wrap;html=1;fillColor=#d5e8d4;strokeColor=#82b366;" parent="1" vertex="1">
          <mxGeometry x="650" y="920" width="80" height="40" as="geometry" />
        </mxCell>
        <mxCell id="CLJaS080JUazORsA9r7G-86" value="ENEA" style="rounded=0;whiteSpace=wrap;html=1;fillColor=#d5e8d4;strokeColor=#82b366;" parent="1" vertex="1">
          <mxGeometry x="620" y="990" width="80" height="40" as="geometry" />
        </mxCell>
        <mxCell id="CLJaS080JUazORsA9r7G-100" style="edgeStyle=orthogonalEdgeStyle;rounded=1;orthogonalLoop=1;jettySize=auto;html=1;exitX=1;exitY=1;exitDx=0;exitDy=0;entryX=1;entryY=0;entryDx=0;entryDy=0;endArrow=none;endFill=0;" parent="1" source="CLJaS080JUazORsA9r7G-88" target="CLJaS080JUazORsA9r7G-98" edge="1">
          <mxGeometry relative="1" as="geometry" />
        </mxCell>
        <mxCell id="CLJaS080JUazORsA9r7G-115" style="edgeStyle=orthogonalEdgeStyle;rounded=1;orthogonalLoop=1;jettySize=auto;html=1;exitX=0;exitY=0.5;exitDx=0;exitDy=0;entryX=0;entryY=0.5;entryDx=0;entryDy=0;endArrow=none;endFill=0;dashed=1;" parent="1" source="CLJaS080JUazORsA9r7G-88" target="CLJaS080JUazORsA9r7G-110" edge="1">
          <mxGeometry relative="1" as="geometry">
            <Array as="points">
              <mxPoint x="210" y="770" />
              <mxPoint x="210" y="940" />
            </Array>
          </mxGeometry>
        </mxCell>
        <mxCell id="CLJaS080JUazORsA9r7G-88" value="ZEUS" style="rounded=0;whiteSpace=wrap;html=1;" parent="1" vertex="1">
          <mxGeometry x="270" y="750" width="80" height="40" as="geometry" />
        </mxCell>
        <mxCell id="CLJaS080JUazORsA9r7G-89" value="LETO&lt;br&gt;(LATONA)" style="rounded=0;whiteSpace=wrap;html=1;" parent="1" vertex="1">
          <mxGeometry x="350" y="750" width="80" height="40" as="geometry" />
        </mxCell>
        <mxCell id="CLJaS080JUazORsA9r7G-90" value="FEBE" style="rounded=0;whiteSpace=wrap;html=1;fillColor=#fff2cc;strokeColor=#d6b656;" parent="1" vertex="1">
          <mxGeometry x="390" y="380" width="80" height="40" as="geometry" />
        </mxCell>
        <mxCell id="CLJaS080JUazORsA9r7G-96" style="edgeStyle=orthogonalEdgeStyle;rounded=1;orthogonalLoop=1;jettySize=auto;html=1;exitX=0.5;exitY=1;exitDx=0;exitDy=0;entryX=0.5;entryY=0;entryDx=0;entryDy=0;endArrow=classic;endFill=1;" parent="1" source="CLJaS080JUazORsA9r7G-91" target="CLJaS080JUazORsA9r7G-89" edge="1">
          <mxGeometry relative="1" as="geometry">
            <Array as="points">
              <mxPoint x="550" y="420" />
              <mxPoint x="550" y="670" />
              <mxPoint x="400" y="670" />
              <mxPoint x="400" y="750" />
            </Array>
          </mxGeometry>
        </mxCell>
        <mxCell id="CLJaS080JUazORsA9r7G-91" value="CEO" style="rounded=0;whiteSpace=wrap;html=1;fillColor=#fff2cc;strokeColor=#d6b656;" parent="1" vertex="1">
          <mxGeometry x="470" y="380" width="80" height="40" as="geometry" />
        </mxCell>
        <mxCell id="CLJaS080JUazORsA9r7G-98" value="APOLLO" style="rounded=0;whiteSpace=wrap;html=1;" parent="1" vertex="1">
          <mxGeometry x="250" y="830" width="80" height="40" as="geometry" />
        </mxCell>
        <mxCell id="CLJaS080JUazORsA9r7G-101" style="edgeStyle=orthogonalEdgeStyle;rounded=1;orthogonalLoop=1;jettySize=auto;html=1;exitX=0;exitY=0;exitDx=0;exitDy=0;endArrow=none;endFill=0;" parent="1" source="CLJaS080JUazORsA9r7G-99" edge="1">
          <mxGeometry relative="1" as="geometry">
            <mxPoint x="349.99999999999955" y="789.9999999999998" as="targetPoint" />
          </mxGeometry>
        </mxCell>
        <mxCell id="CLJaS080JUazORsA9r7G-99" value="ARTEMIDE" style="rounded=0;whiteSpace=wrap;html=1;" parent="1" vertex="1">
          <mxGeometry x="360" y="830" width="80" height="40" as="geometry" />
        </mxCell>
        <mxCell id="CLJaS080JUazORsA9r7G-108" style="edgeStyle=orthogonalEdgeStyle;rounded=1;orthogonalLoop=1;jettySize=auto;html=1;exitX=1;exitY=1;exitDx=0;exitDy=0;entryX=0.5;entryY=0;entryDx=0;entryDy=0;endArrow=classic;endFill=1;" parent="1" source="CLJaS080JUazORsA9r7G-103" target="CLJaS080JUazORsA9r7G-107" edge="1">
          <mxGeometry relative="1" as="geometry" />
        </mxCell>
        <mxCell id="CLJaS080JUazORsA9r7G-103" value="OCEANO" style="rounded=0;whiteSpace=wrap;html=1;fillColor=#fff2cc;strokeColor=#d6b656;" parent="1" vertex="1">
          <mxGeometry x="1470" y="390" width="80" height="40" as="geometry" />
        </mxCell>
        <mxCell id="CLJaS080JUazORsA9r7G-109" style="edgeStyle=orthogonalEdgeStyle;rounded=1;orthogonalLoop=1;jettySize=auto;html=1;exitX=0;exitY=1;exitDx=0;exitDy=0;endArrow=none;endFill=0;" parent="1" source="CLJaS080JUazORsA9r7G-104" edge="1">
          <mxGeometry relative="1" as="geometry">
            <mxPoint x="1550.2352941176473" y="459.9999999999998" as="targetPoint" />
          </mxGeometry>
        </mxCell>
        <mxCell id="CLJaS080JUazORsA9r7G-104" value="TETI" style="rounded=0;whiteSpace=wrap;html=1;fillColor=#fff2cc;strokeColor=#d6b656;" parent="1" vertex="1">
          <mxGeometry x="1550" y="390" width="80" height="40" as="geometry" />
        </mxCell>
        <mxCell id="CLJaS080JUazORsA9r7G-112" style="edgeStyle=orthogonalEdgeStyle;rounded=1;orthogonalLoop=1;jettySize=auto;html=1;exitX=0;exitY=1;exitDx=0;exitDy=0;entryX=1;entryY=0;entryDx=0;entryDy=0;endArrow=classic;endFill=1;dashed=1;" parent="1" source="CLJaS080JUazORsA9r7G-107" target="CLJaS080JUazORsA9r7G-111" edge="1">
          <mxGeometry relative="1" as="geometry">
            <Array as="points">
              <mxPoint x="1500" y="710" />
              <mxPoint x="510" y="710" />
              <mxPoint x="510" y="920" />
            </Array>
          </mxGeometry>
        </mxCell>
        <mxCell id="CLJaS080JUazORsA9r7G-107" value="METIS" style="rounded=0;whiteSpace=wrap;html=1;" parent="1" vertex="1">
          <mxGeometry x="1510" y="470" width="80" height="40" as="geometry" />
        </mxCell>
        <mxCell id="CLJaS080JUazORsA9r7G-134" style="edgeStyle=orthogonalEdgeStyle;curved=1;orthogonalLoop=1;jettySize=auto;html=1;exitX=0;exitY=0.75;exitDx=0;exitDy=0;entryX=0;entryY=0.5;entryDx=0;entryDy=0;endArrow=none;endFill=0;dashed=1;" parent="1" source="CLJaS080JUazORsA9r7G-110" target="CLJaS080JUazORsA9r7G-130" edge="1">
          <mxGeometry relative="1" as="geometry">
            <Array as="points">
              <mxPoint x="240" y="950" />
              <mxPoint x="240" y="1090" />
            </Array>
          </mxGeometry>
        </mxCell>
        <mxCell id="CLJaS080JUazORsA9r7G-110" value="ZEUS" style="rounded=0;whiteSpace=wrap;html=1;" parent="1" vertex="1">
          <mxGeometry x="270" y="920" width="80" height="40" as="geometry" />
        </mxCell>
        <mxCell id="CLJaS080JUazORsA9r7G-114" style="edgeStyle=orthogonalEdgeStyle;rounded=1;orthogonalLoop=1;jettySize=auto;html=1;exitX=0;exitY=1;exitDx=0;exitDy=0;entryX=0.5;entryY=0;entryDx=0;entryDy=0;endArrow=classic;endFill=1;" parent="1" source="CLJaS080JUazORsA9r7G-111" target="CLJaS080JUazORsA9r7G-113" edge="1">
          <mxGeometry relative="1" as="geometry" />
        </mxCell>
        <mxCell id="CLJaS080JUazORsA9r7G-111" value="METIS" style="rounded=0;whiteSpace=wrap;html=1;" parent="1" vertex="1">
          <mxGeometry x="350" y="920" width="80" height="40" as="geometry" />
        </mxCell>
        <mxCell id="CLJaS080JUazORsA9r7G-113" value="ATENA" style="rounded=0;whiteSpace=wrap;html=1;" parent="1" vertex="1">
          <mxGeometry x="310" y="1000" width="80" height="40" as="geometry" />
        </mxCell>
        <mxCell id="CLJaS080JUazORsA9r7G-144" style="edgeStyle=orthogonalEdgeStyle;curved=1;orthogonalLoop=1;jettySize=auto;html=1;exitX=0.25;exitY=1;exitDx=0;exitDy=0;entryX=0.5;entryY=0;entryDx=0;entryDy=0;endArrow=classic;endFill=1;" parent="1" source="CLJaS080JUazORsA9r7G-116" target="CLJaS080JUazORsA9r7G-35" edge="1">
          <mxGeometry relative="1" as="geometry" />
        </mxCell>
        <mxCell id="8KXKPDtSkPjnYWEbEdFz-7" style="edgeStyle=orthogonalEdgeStyle;curved=1;orthogonalLoop=1;jettySize=auto;html=1;exitX=0.75;exitY=1;exitDx=0;exitDy=0;dashed=1;endArrow=none;endFill=0;" parent="1" source="CLJaS080JUazORsA9r7G-116" edge="1">
          <mxGeometry relative="1" as="geometry">
            <mxPoint x="1240" y="978" as="targetPoint" />
          </mxGeometry>
        </mxCell>
        <mxCell id="CLJaS080JUazORsA9r7G-116" value="DEMETRA" style="rounded=0;whiteSpace=wrap;html=1;" parent="1" vertex="1">
          <mxGeometry x="1180" y="530" width="80" height="40" as="geometry" />
        </mxCell>
        <mxCell id="CLJaS080JUazORsA9r7G-121" value="EFESTO" style="rounded=0;whiteSpace=wrap;html=1;" parent="1" vertex="1">
          <mxGeometry x="650" y="470" width="80" height="40" as="geometry" />
        </mxCell>
        <mxCell id="CLJaS080JUazORsA9r7G-129" style="edgeStyle=orthogonalEdgeStyle;curved=1;orthogonalLoop=1;jettySize=auto;html=1;exitX=1;exitY=1;exitDx=0;exitDy=0;entryX=0.5;entryY=0;entryDx=0;entryDy=0;endArrow=classic;endFill=1;" parent="1" source="CLJaS080JUazORsA9r7G-125" target="CLJaS080JUazORsA9r7G-128" edge="1">
          <mxGeometry relative="1" as="geometry" />
        </mxCell>
        <mxCell id="CLJaS080JUazORsA9r7G-125" value="TETI (NEREIDE)" style="rounded=0;whiteSpace=wrap;html=1;" parent="1" vertex="1">
          <mxGeometry x="1140" y="190" width="80" height="40" as="geometry" />
        </mxCell>
        <mxCell id="CLJaS080JUazORsA9r7G-126" value="PELEO" style="rounded=0;whiteSpace=wrap;html=1;fillColor=#d5e8d4;strokeColor=#82b366;" parent="1" vertex="1">
          <mxGeometry x="1220" y="190" width="80" height="40" as="geometry" />
        </mxCell>
        <mxCell id="CLJaS080JUazORsA9r7G-128" value="ACHILLE" style="rounded=0;whiteSpace=wrap;html=1;fillColor=#d5e8d4;strokeColor=#82b366;" parent="1" vertex="1">
          <mxGeometry x="1180" y="260" width="80" height="40" as="geometry" />
        </mxCell>
        <mxCell id="CLJaS080JUazORsA9r7G-130" value="ZEUS" style="rounded=0;whiteSpace=wrap;html=1;" parent="1" vertex="1">
          <mxGeometry x="270" y="1070" width="80" height="40" as="geometry" />
        </mxCell>
        <mxCell id="CLJaS080JUazORsA9r7G-131" value="MAIA" style="rounded=0;whiteSpace=wrap;html=1;" parent="1" vertex="1">
          <mxGeometry x="350" y="1070" width="80" height="40" as="geometry" />
        </mxCell>
        <mxCell id="CLJaS080JUazORsA9r7G-132" style="edgeStyle=orthogonalEdgeStyle;rounded=1;orthogonalLoop=1;jettySize=auto;html=1;entryX=0.5;entryY=0;entryDx=0;entryDy=0;endArrow=classic;endFill=1;exitX=0;exitY=1;exitDx=0;exitDy=0;" parent="1" source="CLJaS080JUazORsA9r7G-131" target="CLJaS080JUazORsA9r7G-133" edge="1">
          <mxGeometry relative="1" as="geometry">
            <mxPoint x="370" y="1140" as="sourcePoint" />
          </mxGeometry>
        </mxCell>
        <mxCell id="8KXKPDtSkPjnYWEbEdFz-9" style="edgeStyle=orthogonalEdgeStyle;curved=1;orthogonalLoop=1;jettySize=auto;html=1;exitX=1;exitY=0.25;exitDx=0;exitDy=0;entryX=0.25;entryY=1;entryDx=0;entryDy=0;dashed=1;endArrow=none;endFill=0;" parent="1" source="CLJaS080JUazORsA9r7G-133" target="8KXKPDtSkPjnYWEbEdFz-1" edge="1">
          <mxGeometry relative="1" as="geometry" />
        </mxCell>
        <mxCell id="CLJaS080JUazORsA9r7G-133" value="ERMES" style="rounded=0;whiteSpace=wrap;html=1;" parent="1" vertex="1">
          <mxGeometry x="310" y="1150" width="80" height="40" as="geometry" />
        </mxCell>
        <mxCell id="CLJaS080JUazORsA9r7G-138" value="ZEUS" style="rounded=0;whiteSpace=wrap;html=1;" parent="1" vertex="1">
          <mxGeometry x="270" y="1220" width="80" height="40" as="geometry" />
        </mxCell>
        <mxCell id="8KXKPDtSkPjnYWEbEdFz-8" style="edgeStyle=orthogonalEdgeStyle;curved=1;orthogonalLoop=1;jettySize=auto;html=1;exitX=1;exitY=0.5;exitDx=0;exitDy=0;entryX=0.25;entryY=1;entryDx=0;entryDy=0;dashed=1;endArrow=none;endFill=0;" parent="1" source="CLJaS080JUazORsA9r7G-139" target="8KXKPDtSkPjnYWEbEdFz-3" edge="1">
          <mxGeometry relative="1" as="geometry" />
        </mxCell>
        <mxCell id="CLJaS080JUazORsA9r7G-139" value="DEMETRA" style="rounded=0;whiteSpace=wrap;html=1;" parent="1" vertex="1">
          <mxGeometry x="350" y="1220" width="80" height="40" as="geometry" />
        </mxCell>
        <mxCell id="CLJaS080JUazORsA9r7G-140" style="edgeStyle=orthogonalEdgeStyle;rounded=1;orthogonalLoop=1;jettySize=auto;html=1;entryX=0.5;entryY=0;entryDx=0;entryDy=0;endArrow=classic;endFill=1;exitX=0;exitY=1;exitDx=0;exitDy=0;" parent="1" source="CLJaS080JUazORsA9r7G-139" target="CLJaS080JUazORsA9r7G-141" edge="1">
          <mxGeometry relative="1" as="geometry">
            <mxPoint x="370" y="1290" as="sourcePoint" />
          </mxGeometry>
        </mxCell>
        <mxCell id="CLJaS080JUazORsA9r7G-141" value="PERSEFONE" style="rounded=0;whiteSpace=wrap;html=1;" parent="1" vertex="1">
          <mxGeometry x="310" y="1300" width="80" height="40" as="geometry" />
        </mxCell>
        <mxCell id="CLJaS080JUazORsA9r7G-142" style="edgeStyle=orthogonalEdgeStyle;curved=1;orthogonalLoop=1;jettySize=auto;html=1;exitX=0;exitY=0.75;exitDx=0;exitDy=0;entryX=0;entryY=0.5;entryDx=0;entryDy=0;endArrow=none;endFill=0;dashed=1;" parent="1" edge="1">
          <mxGeometry relative="1" as="geometry">
            <mxPoint x="270" y="1100" as="sourcePoint" />
            <mxPoint x="270" y="1240" as="targetPoint" />
            <Array as="points">
              <mxPoint x="240" y="1100" />
              <mxPoint x="240" y="1240" />
            </Array>
          </mxGeometry>
        </mxCell>
        <mxCell id="CLJaS080JUazORsA9r7G-146" value="IPERIONE" style="rounded=0;whiteSpace=wrap;html=1;fillColor=#fff2cc;strokeColor=#d6b656;" parent="1" vertex="1">
          <mxGeometry x="1360" y="190" width="80" height="40" as="geometry" />
        </mxCell>
        <mxCell id="CLJaS080JUazORsA9r7G-151" style="edgeStyle=orthogonalEdgeStyle;curved=1;orthogonalLoop=1;jettySize=auto;html=1;exitX=0;exitY=1;exitDx=0;exitDy=0;entryX=0.5;entryY=0;entryDx=0;entryDy=0;endArrow=classic;endFill=1;" parent="1" source="CLJaS080JUazORsA9r7G-147" target="CLJaS080JUazORsA9r7G-150" edge="1">
          <mxGeometry relative="1" as="geometry" />
        </mxCell>
        <mxCell id="CLJaS080JUazORsA9r7G-147" value="TEIA" style="rounded=0;whiteSpace=wrap;html=1;fillColor=#fff2cc;strokeColor=#d6b656;" parent="1" vertex="1">
          <mxGeometry x="1440" y="190" width="80" height="40" as="geometry" />
        </mxCell>
        <mxCell id="CLJaS080JUazORsA9r7G-155" style="edgeStyle=orthogonalEdgeStyle;curved=1;orthogonalLoop=1;jettySize=auto;html=1;exitX=0.5;exitY=1;exitDx=0;exitDy=0;entryX=0.25;entryY=0;entryDx=0;entryDy=0;endArrow=classic;endFill=1;" parent="1" source="CLJaS080JUazORsA9r7G-148" target="CLJaS080JUazORsA9r7G-154" edge="1">
          <mxGeometry relative="1" as="geometry" />
        </mxCell>
        <mxCell id="CLJaS080JUazORsA9r7G-226" style="edgeStyle=orthogonalEdgeStyle;curved=1;orthogonalLoop=1;jettySize=auto;html=1;exitX=1;exitY=0.5;exitDx=0;exitDy=0;entryX=0.5;entryY=0;entryDx=0;entryDy=0;endArrow=none;endFill=0;dashed=1;" parent="1" source="CLJaS080JUazORsA9r7G-148" target="CLJaS080JUazORsA9r7G-200" edge="1">
          <mxGeometry relative="1" as="geometry" />
        </mxCell>
        <mxCell id="CLJaS080JUazORsA9r7G-148" value="ELIO" style="rounded=0;whiteSpace=wrap;html=1;" parent="1" vertex="1">
          <mxGeometry x="1580" y="250" width="80" height="40" as="geometry" />
        </mxCell>
        <mxCell id="CLJaS080JUazORsA9r7G-149" value="SELENE" style="rounded=0;whiteSpace=wrap;html=1;" parent="1" vertex="1">
          <mxGeometry x="1490" y="250" width="80" height="40" as="geometry" />
        </mxCell>
        <mxCell id="CLJaS080JUazORsA9r7G-150" value="EOS" style="rounded=0;whiteSpace=wrap;html=1;" parent="1" vertex="1">
          <mxGeometry x="1400" y="250" width="80" height="40" as="geometry" />
        </mxCell>
        <mxCell id="CLJaS080JUazORsA9r7G-154" value="FETONTE" style="rounded=0;whiteSpace=wrap;html=1;fillColor=#d5e8d4;strokeColor=#82b366;" parent="1" vertex="1">
          <mxGeometry x="1600" y="310" width="80" height="40" as="geometry" />
        </mxCell>
        <mxCell id="CLJaS080JUazORsA9r7G-156" value="ZEUS" style="rounded=0;whiteSpace=wrap;html=1;" parent="1" vertex="1">
          <mxGeometry x="500" y="1180" width="80" height="40" as="geometry" />
        </mxCell>
        <mxCell id="CLJaS080JUazORsA9r7G-157" value="SEMELE" style="rounded=0;whiteSpace=wrap;html=1;" parent="1" vertex="1">
          <mxGeometry x="580" y="1180" width="80" height="40" as="geometry" />
        </mxCell>
        <mxCell id="CLJaS080JUazORsA9r7G-158" style="edgeStyle=orthogonalEdgeStyle;rounded=1;orthogonalLoop=1;jettySize=auto;html=1;entryX=0.5;entryY=0;entryDx=0;entryDy=0;endArrow=classic;endFill=1;exitX=0;exitY=1;exitDx=0;exitDy=0;" parent="1" source="CLJaS080JUazORsA9r7G-157" target="CLJaS080JUazORsA9r7G-159" edge="1">
          <mxGeometry relative="1" as="geometry">
            <mxPoint x="600" y="1250" as="sourcePoint" />
          </mxGeometry>
        </mxCell>
        <mxCell id="CLJaS080JUazORsA9r7G-159" value="DIONISO" style="rounded=0;whiteSpace=wrap;html=1;" parent="1" vertex="1">
          <mxGeometry x="500" y="1280" width="80" height="40" as="geometry" />
        </mxCell>
        <mxCell id="CLJaS080JUazORsA9r7G-162" style="edgeStyle=orthogonalEdgeStyle;curved=1;orthogonalLoop=1;jettySize=auto;html=1;exitX=1;exitY=1;exitDx=0;exitDy=0;entryX=0.385;entryY=0.01;entryDx=0;entryDy=0;entryPerimeter=0;endArrow=classic;endFill=1;" parent="1" source="CLJaS080JUazORsA9r7G-160" target="CLJaS080JUazORsA9r7G-157" edge="1">
          <mxGeometry relative="1" as="geometry" />
        </mxCell>
        <mxCell id="CLJaS080JUazORsA9r7G-160" value="CADMO" style="rounded=0;whiteSpace=wrap;html=1;fillColor=#d5e8d4;strokeColor=#82b366;" parent="1" vertex="1">
          <mxGeometry x="530" y="1100" width="80" height="40" as="geometry" />
        </mxCell>
        <mxCell id="CLJaS080JUazORsA9r7G-235" style="edgeStyle=orthogonalEdgeStyle;curved=1;orthogonalLoop=1;jettySize=auto;html=1;exitX=0;exitY=1;exitDx=0;exitDy=0;entryX=0.5;entryY=0;entryDx=0;entryDy=0;endArrow=classic;endFill=1;" parent="1" source="CLJaS080JUazORsA9r7G-161" target="CLJaS080JUazORsA9r7G-234" edge="1">
          <mxGeometry relative="1" as="geometry" />
        </mxCell>
        <mxCell id="CLJaS080JUazORsA9r7G-161" value="ARMONIA" style="rounded=0;whiteSpace=wrap;html=1;" parent="1" vertex="1">
          <mxGeometry x="610" y="1100" width="80" height="40" as="geometry" />
        </mxCell>
        <mxCell id="CLJaS080JUazORsA9r7G-164" value="ZEUS" style="rounded=0;whiteSpace=wrap;html=1;" parent="1" vertex="1">
          <mxGeometry x="678.25" y="1350" width="80" height="40" as="geometry" />
        </mxCell>
        <mxCell id="CLJaS080JUazORsA9r7G-165" value="DANAE" style="rounded=0;whiteSpace=wrap;html=1;fillColor=#d5e8d4;strokeColor=#82b366;" parent="1" vertex="1">
          <mxGeometry x="758.25" y="1350" width="80" height="40" as="geometry" />
        </mxCell>
        <mxCell id="CLJaS080JUazORsA9r7G-166" style="edgeStyle=orthogonalEdgeStyle;rounded=1;orthogonalLoop=1;jettySize=auto;html=1;entryX=0.5;entryY=0;entryDx=0;entryDy=0;endArrow=classic;endFill=1;exitX=0;exitY=1;exitDx=0;exitDy=0;" parent="1" source="CLJaS080JUazORsA9r7G-165" target="CLJaS080JUazORsA9r7G-167" edge="1">
          <mxGeometry relative="1" as="geometry">
            <mxPoint x="778.25" y="1420" as="sourcePoint" />
          </mxGeometry>
        </mxCell>
        <mxCell id="CLJaS080JUazORsA9r7G-167" value="PERSEO" style="rounded=0;whiteSpace=wrap;html=1;" parent="1" vertex="1">
          <mxGeometry x="718.25" y="1430" width="80" height="40" as="geometry" />
        </mxCell>
        <mxCell id="CLJaS080JUazORsA9r7G-169" style="edgeStyle=orthogonalEdgeStyle;curved=1;orthogonalLoop=1;jettySize=auto;html=1;exitX=0.25;exitY=1;exitDx=0;exitDy=0;entryX=0.5;entryY=0;entryDx=0;entryDy=0;endArrow=classic;endFill=1;" parent="1" source="CLJaS080JUazORsA9r7G-168" target="CLJaS080JUazORsA9r7G-165" edge="1">
          <mxGeometry relative="1" as="geometry" />
        </mxCell>
        <mxCell id="CLJaS080JUazORsA9r7G-168" value="ARCISIO" style="rounded=0;whiteSpace=wrap;html=1;fillColor=#d5e8d4;strokeColor=#82b366;" parent="1" vertex="1">
          <mxGeometry x="778.25" y="1280" width="80" height="40" as="geometry" />
        </mxCell>
        <mxCell id="CLJaS080JUazORsA9r7G-170" value="ZEUS" style="rounded=0;whiteSpace=wrap;html=1;" parent="1" vertex="1">
          <mxGeometry x="420" y="1360" width="80" height="40" as="geometry" />
        </mxCell>
        <mxCell id="CLJaS080JUazORsA9r7G-171" value="ALCMENA" style="rounded=0;whiteSpace=wrap;html=1;fillColor=#d5e8d4;strokeColor=#82b366;" parent="1" vertex="1">
          <mxGeometry x="500" y="1360" width="80" height="40" as="geometry" />
        </mxCell>
        <mxCell id="CLJaS080JUazORsA9r7G-172" style="edgeStyle=orthogonalEdgeStyle;rounded=1;orthogonalLoop=1;jettySize=auto;html=1;entryX=0.5;entryY=0;entryDx=0;entryDy=0;endArrow=classic;endFill=1;exitX=0;exitY=1;exitDx=0;exitDy=0;" parent="1" source="CLJaS080JUazORsA9r7G-171" target="CLJaS080JUazORsA9r7G-173" edge="1">
          <mxGeometry relative="1" as="geometry">
            <mxPoint x="520" y="1430" as="sourcePoint" />
          </mxGeometry>
        </mxCell>
        <mxCell id="CLJaS080JUazORsA9r7G-173" value="ERACLE" style="rounded=0;whiteSpace=wrap;html=1;" parent="1" vertex="1">
          <mxGeometry x="460" y="1440" width="80" height="40" as="geometry" />
        </mxCell>
        <mxCell id="CLJaS080JUazORsA9r7G-176" style="edgeStyle=orthogonalEdgeStyle;curved=1;orthogonalLoop=1;jettySize=auto;html=1;exitX=0.5;exitY=0;exitDx=0;exitDy=0;entryX=0.5;entryY=0;entryDx=0;entryDy=0;endArrow=none;endFill=0;dashed=1;" parent="1" source="CLJaS080JUazORsA9r7G-174" target="CLJaS080JUazORsA9r7G-175" edge="1">
          <mxGeometry relative="1" as="geometry" />
        </mxCell>
        <mxCell id="CLJaS080JUazORsA9r7G-179" style="edgeStyle=orthogonalEdgeStyle;curved=1;orthogonalLoop=1;jettySize=auto;html=1;exitX=0;exitY=1;exitDx=0;exitDy=0;entryX=0.5;entryY=0;entryDx=0;entryDy=0;endArrow=classic;endFill=1;" parent="1" source="CLJaS080JUazORsA9r7G-174" target="CLJaS080JUazORsA9r7G-178" edge="1">
          <mxGeometry relative="1" as="geometry" />
        </mxCell>
        <mxCell id="CLJaS080JUazORsA9r7G-174" value="TIRO" style="rounded=0;whiteSpace=wrap;html=1;fillColor=#d5e8d4;strokeColor=#82b366;" parent="1" vertex="1">
          <mxGeometry x="1370" y="590" width="80" height="40" as="geometry" />
        </mxCell>
        <mxCell id="CLJaS080JUazORsA9r7G-181" style="edgeStyle=orthogonalEdgeStyle;curved=1;orthogonalLoop=1;jettySize=auto;html=1;exitX=1;exitY=1;exitDx=0;exitDy=0;entryX=0.5;entryY=0;entryDx=0;entryDy=0;endArrow=classic;endFill=1;" parent="1" source="CLJaS080JUazORsA9r7G-175" target="CLJaS080JUazORsA9r7G-180" edge="1">
          <mxGeometry relative="1" as="geometry" />
        </mxCell>
        <mxCell id="CLJaS080JUazORsA9r7G-175" value="TIRO" style="rounded=0;whiteSpace=wrap;html=1;fillColor=#d5e8d4;strokeColor=#82b366;" parent="1" vertex="1">
          <mxGeometry x="1540" y="590" width="80" height="40" as="geometry" />
        </mxCell>
        <mxCell id="CLJaS080JUazORsA9r7G-177" value="CRETEO" style="rounded=0;whiteSpace=wrap;html=1;fillColor=#d5e8d4;strokeColor=#82b366;" parent="1" vertex="1">
          <mxGeometry x="1620" y="590" width="80" height="40" as="geometry" />
        </mxCell>
        <mxCell id="CLJaS080JUazORsA9r7G-178" value="PELIA" style="rounded=0;whiteSpace=wrap;html=1;fillColor=#d5e8d4;strokeColor=#82b366;" parent="1" vertex="1">
          <mxGeometry x="1330" y="660" width="80" height="40" as="geometry" />
        </mxCell>
        <mxCell id="CLJaS080JUazORsA9r7G-180" value="ESONE" style="rounded=0;whiteSpace=wrap;html=1;fillColor=#d5e8d4;strokeColor=#82b366;" parent="1" vertex="1">
          <mxGeometry x="1580" y="660" width="80" height="40" as="geometry" />
        </mxCell>
        <mxCell id="CLJaS080JUazORsA9r7G-185" style="edgeStyle=orthogonalEdgeStyle;curved=1;orthogonalLoop=1;jettySize=auto;html=1;exitX=0;exitY=1;exitDx=0;exitDy=0;entryX=0.5;entryY=0;entryDx=0;entryDy=0;endArrow=classic;endFill=1;" parent="1" source="CLJaS080JUazORsA9r7G-182" target="CLJaS080JUazORsA9r7G-183" edge="1">
          <mxGeometry relative="1" as="geometry" />
        </mxCell>
        <mxCell id="CLJaS080JUazORsA9r7G-182" value="ALCIMEDE" style="rounded=0;whiteSpace=wrap;html=1;fillColor=#d5e8d4;strokeColor=#82b366;" parent="1" vertex="1">
          <mxGeometry x="1660" y="660" width="80" height="40" as="geometry" />
        </mxCell>
        <mxCell id="CLJaS080JUazORsA9r7G-183" value="GIASONE" style="rounded=0;whiteSpace=wrap;html=1;fillColor=#d5e8d4;strokeColor=#82b366;" parent="1" vertex="1">
          <mxGeometry x="1620" y="770" width="80" height="40" as="geometry" />
        </mxCell>
        <mxCell id="CLJaS080JUazORsA9r7G-208" style="edgeStyle=orthogonalEdgeStyle;curved=1;orthogonalLoop=1;jettySize=auto;html=1;exitX=1;exitY=0.5;exitDx=0;exitDy=0;entryX=0;entryY=0.5;entryDx=0;entryDy=0;endArrow=none;endFill=0;dashed=1;" parent="1" source="CLJaS080JUazORsA9r7G-186" target="CLJaS080JUazORsA9r7G-204" edge="1">
          <mxGeometry relative="1" as="geometry" />
        </mxCell>
        <mxCell id="CLJaS080JUazORsA9r7G-209" style="edgeStyle=orthogonalEdgeStyle;curved=1;orthogonalLoop=1;jettySize=auto;html=1;exitX=0;exitY=1;exitDx=0;exitDy=0;endArrow=classic;endFill=1;" parent="1" source="CLJaS080JUazORsA9r7G-186" edge="1">
          <mxGeometry relative="1" as="geometry">
            <mxPoint x="1700.1428571428573" y="840" as="targetPoint" />
          </mxGeometry>
        </mxCell>
        <mxCell id="CLJaS080JUazORsA9r7G-186" value="MEDEA" style="rounded=0;whiteSpace=wrap;html=1;" parent="1" vertex="1">
          <mxGeometry x="1700" y="770" width="80" height="40" as="geometry" />
        </mxCell>
        <mxCell id="CLJaS080JUazORsA9r7G-187" value="LAIO" style="rounded=0;whiteSpace=wrap;html=1;fillColor=#d5e8d4;strokeColor=#82b366;" parent="1" vertex="1">
          <mxGeometry x="940" y="1267.5" width="80" height="40" as="geometry" />
        </mxCell>
        <mxCell id="CLJaS080JUazORsA9r7G-190" style="edgeStyle=orthogonalEdgeStyle;curved=1;orthogonalLoop=1;jettySize=auto;html=1;exitX=0;exitY=1;exitDx=0;exitDy=0;entryX=0.5;entryY=0;entryDx=0;entryDy=0;endArrow=classic;endFill=1;" parent="1" source="CLJaS080JUazORsA9r7G-188" target="CLJaS080JUazORsA9r7G-189" edge="1">
          <mxGeometry relative="1" as="geometry" />
        </mxCell>
        <mxCell id="CLJaS080JUazORsA9r7G-188" value="GIOCASTA" style="rounded=0;whiteSpace=wrap;html=1;fillColor=#d5e8d4;strokeColor=#82b366;" parent="1" vertex="1">
          <mxGeometry x="1020" y="1267.5" width="80" height="40" as="geometry" />
        </mxCell>
        <mxCell id="CLJaS080JUazORsA9r7G-193" style="edgeStyle=orthogonalEdgeStyle;curved=1;orthogonalLoop=1;jettySize=auto;html=1;exitX=0.5;exitY=1;exitDx=0;exitDy=0;entryX=0.5;entryY=0;entryDx=0;entryDy=0;endArrow=classic;endFill=1;" parent="1" source="CLJaS080JUazORsA9r7G-189" target="CLJaS080JUazORsA9r7G-191" edge="1">
          <mxGeometry relative="1" as="geometry" />
        </mxCell>
        <mxCell id="CLJaS080JUazORsA9r7G-194" style="edgeStyle=orthogonalEdgeStyle;curved=1;orthogonalLoop=1;jettySize=auto;html=1;exitX=0.5;exitY=1;exitDx=0;exitDy=0;entryX=0.5;entryY=0;entryDx=0;entryDy=0;endArrow=classic;endFill=1;" parent="1" source="CLJaS080JUazORsA9r7G-189" target="CLJaS080JUazORsA9r7G-192" edge="1">
          <mxGeometry relative="1" as="geometry" />
        </mxCell>
        <mxCell id="CLJaS080JUazORsA9r7G-231" style="edgeStyle=orthogonalEdgeStyle;curved=1;orthogonalLoop=1;jettySize=auto;html=1;exitX=1;exitY=1;exitDx=0;exitDy=0;entryX=0.5;entryY=0;entryDx=0;entryDy=0;endArrow=classic;endFill=1;" parent="1" source="CLJaS080JUazORsA9r7G-189" target="CLJaS080JUazORsA9r7G-230" edge="1">
          <mxGeometry relative="1" as="geometry" />
        </mxCell>
        <mxCell id="CLJaS080JUazORsA9r7G-239" style="edgeStyle=orthogonalEdgeStyle;curved=1;orthogonalLoop=1;jettySize=auto;html=1;exitX=0.75;exitY=1;exitDx=0;exitDy=0;entryX=0.5;entryY=0;entryDx=0;entryDy=0;endArrow=classic;endFill=1;" parent="1" source="CLJaS080JUazORsA9r7G-189" target="CLJaS080JUazORsA9r7G-238" edge="1">
          <mxGeometry relative="1" as="geometry" />
        </mxCell>
        <mxCell id="CLJaS080JUazORsA9r7G-189" value="EDIPO" style="rounded=0;whiteSpace=wrap;html=1;fillColor=#d5e8d4;strokeColor=#82b366;" parent="1" vertex="1">
          <mxGeometry x="980" y="1337.5" width="80" height="40" as="geometry" />
        </mxCell>
        <mxCell id="CLJaS080JUazORsA9r7G-191" value="ETEOCLE" style="rounded=0;whiteSpace=wrap;html=1;fillColor=#d5e8d4;strokeColor=#82b366;" parent="1" vertex="1">
          <mxGeometry x="900" y="1430" width="80" height="40" as="geometry" />
        </mxCell>
        <mxCell id="CLJaS080JUazORsA9r7G-192" value="POLINICE" style="rounded=0;whiteSpace=wrap;html=1;fillColor=#d5e8d4;strokeColor=#82b366;" parent="1" vertex="1">
          <mxGeometry x="990" y="1430" width="80" height="40" as="geometry" />
        </mxCell>
        <mxCell id="CLJaS080JUazORsA9r7G-196" style="edgeStyle=orthogonalEdgeStyle;curved=1;orthogonalLoop=1;jettySize=auto;html=1;exitX=0.5;exitY=1;exitDx=0;exitDy=0;entryX=0.5;entryY=0;entryDx=0;entryDy=0;endArrow=classic;endFill=1;" parent="1" source="CLJaS080JUazORsA9r7G-195" target="CLJaS080JUazORsA9r7G-177" edge="1">
          <mxGeometry relative="1" as="geometry" />
        </mxCell>
        <mxCell id="CLJaS080JUazORsA9r7G-195" value="EOLO" style="rounded=0;whiteSpace=wrap;html=1;fillColor=#d5e8d4;strokeColor=#82b366;" parent="1" vertex="1">
          <mxGeometry x="1620" y="520" width="80" height="40" as="geometry" />
        </mxCell>
        <mxCell id="CLJaS080JUazORsA9r7G-197" value="EETE" style="rounded=0;whiteSpace=wrap;html=1;" parent="1" vertex="1">
          <mxGeometry x="1770" y="700" width="80" height="40" as="geometry" />
        </mxCell>
        <mxCell id="CLJaS080JUazORsA9r7G-199" style="edgeStyle=orthogonalEdgeStyle;curved=1;orthogonalLoop=1;jettySize=auto;html=1;exitX=0;exitY=1;exitDx=0;exitDy=0;entryX=0.5;entryY=0;entryDx=0;entryDy=0;endArrow=classic;endFill=1;" parent="1" source="CLJaS080JUazORsA9r7G-198" target="CLJaS080JUazORsA9r7G-186" edge="1">
          <mxGeometry relative="1" as="geometry" />
        </mxCell>
        <mxCell id="CLJaS080JUazORsA9r7G-218" style="edgeStyle=orthogonalEdgeStyle;curved=1;orthogonalLoop=1;jettySize=auto;html=1;exitX=0;exitY=1;exitDx=0;exitDy=0;entryX=0.5;entryY=0;entryDx=0;entryDy=0;endArrow=classic;endFill=1;" parent="1" source="CLJaS080JUazORsA9r7G-198" target="CLJaS080JUazORsA9r7G-215" edge="1">
          <mxGeometry relative="1" as="geometry" />
        </mxCell>
        <mxCell id="CLJaS080JUazORsA9r7G-219" style="edgeStyle=orthogonalEdgeStyle;curved=1;orthogonalLoop=1;jettySize=auto;html=1;exitX=0;exitY=1;exitDx=0;exitDy=0;entryX=0.5;entryY=0;entryDx=0;entryDy=0;endArrow=classic;endFill=1;" parent="1" source="CLJaS080JUazORsA9r7G-198" target="CLJaS080JUazORsA9r7G-216" edge="1">
          <mxGeometry relative="1" as="geometry" />
        </mxCell>
        <mxCell id="CLJaS080JUazORsA9r7G-198" value="IDIA" style="rounded=0;whiteSpace=wrap;html=1;" parent="1" vertex="1">
          <mxGeometry x="1850" y="700" width="80" height="40" as="geometry" />
        </mxCell>
        <mxCell id="CLJaS080JUazORsA9r7G-203" style="edgeStyle=orthogonalEdgeStyle;curved=1;orthogonalLoop=1;jettySize=auto;html=1;exitX=0;exitY=1;exitDx=0;exitDy=0;entryX=0.25;entryY=0;entryDx=0;entryDy=0;endArrow=classic;endFill=1;" parent="1" source="CLJaS080JUazORsA9r7G-200" target="CLJaS080JUazORsA9r7G-197" edge="1">
          <mxGeometry relative="1" as="geometry" />
        </mxCell>
        <mxCell id="CLJaS080JUazORsA9r7G-200" value="ELIO" style="rounded=0;whiteSpace=wrap;html=1;" parent="1" vertex="1">
          <mxGeometry x="1860" y="515" width="80" height="40" as="geometry" />
        </mxCell>
        <mxCell id="CLJaS080JUazORsA9r7G-202" value="PERSEIDE" style="rounded=0;whiteSpace=wrap;html=1;" parent="1" vertex="1">
          <mxGeometry x="1780" y="515" width="80" height="40" as="geometry" />
        </mxCell>
        <mxCell id="CLJaS080JUazORsA9r7G-207" style="edgeStyle=orthogonalEdgeStyle;curved=1;orthogonalLoop=1;jettySize=auto;html=1;exitX=1;exitY=1;exitDx=0;exitDy=0;entryX=0.5;entryY=0;entryDx=0;entryDy=0;endArrow=classic;endFill=1;" parent="1" source="CLJaS080JUazORsA9r7G-204" target="CLJaS080JUazORsA9r7G-206" edge="1">
          <mxGeometry relative="1" as="geometry" />
        </mxCell>
        <mxCell id="CLJaS080JUazORsA9r7G-204" value="MEDEA" style="rounded=0;whiteSpace=wrap;html=1;" parent="1" vertex="1">
          <mxGeometry x="1820" y="1010" width="80" height="40" as="geometry" />
        </mxCell>
        <mxCell id="CLJaS080JUazORsA9r7G-213" style="edgeStyle=orthogonalEdgeStyle;curved=1;orthogonalLoop=1;jettySize=auto;html=1;exitX=0.5;exitY=0;exitDx=0;exitDy=0;entryX=0;entryY=0.5;entryDx=0;entryDy=0;endArrow=none;endFill=0;dashed=1;" parent="1" source="CLJaS080JUazORsA9r7G-205" target="CLJaS080JUazORsA9r7G-210" edge="1">
          <mxGeometry relative="1" as="geometry" />
        </mxCell>
        <mxCell id="CLJaS080JUazORsA9r7G-205" value="EGEO&lt;span style=&quot;color: rgba(0 , 0 , 0 , 0) ; font-family: monospace ; font-size: 0px&quot;&gt;%3CmxGraphModel%3E%3Croot%3E%3CmxCell%20id%3D%220%22%2F%3E%3CmxCell%20id%3D%221%22%20parent%3D%220%22%2F%3E%3CmxCell%20id%3D%222%22%20value%3D%22MEDEA%22%20style%3D%22rounded%3D0%3BwhiteSpace%3Dwrap%3Bhtml%3D1%3BfillColor%3D%23d5e8d4%3BstrokeColor%3D%2382b366%3B%22%20vertex%3D%221%22%20parent%3D%221%22%3E%3CmxGeometry%20x%3D%221960%22%20y%3D%22880%22%20width%3D%2280%22%20height%3D%2240%22%20as%3D%22geometry%22%2F%3E%3C%2FmxCell%3E%3C%2Froot%3E%3C%2FmxGraphModel%3E&lt;/span&gt;" style="rounded=0;whiteSpace=wrap;html=1;fillColor=#d5e8d4;strokeColor=#82b366;" parent="1" vertex="1">
          <mxGeometry x="1900" y="1010" width="80" height="40" as="geometry" />
        </mxCell>
        <mxCell id="CLJaS080JUazORsA9r7G-206" value="MEDO" style="rounded=0;whiteSpace=wrap;html=1;fillColor=#d5e8d4;strokeColor=#82b366;" parent="1" vertex="1">
          <mxGeometry x="1860" y="1080" width="80" height="40" as="geometry" />
        </mxCell>
        <mxCell id="CLJaS080JUazORsA9r7G-214" style="edgeStyle=orthogonalEdgeStyle;curved=1;orthogonalLoop=1;jettySize=auto;html=1;exitX=1;exitY=1;exitDx=0;exitDy=0;entryX=0.5;entryY=0;entryDx=0;entryDy=0;endArrow=classic;endFill=1;" parent="1" source="CLJaS080JUazORsA9r7G-210" target="CLJaS080JUazORsA9r7G-212" edge="1">
          <mxGeometry relative="1" as="geometry" />
        </mxCell>
        <mxCell id="CLJaS080JUazORsA9r7G-210" value="EGEO&lt;span style=&quot;color: rgba(0 , 0 , 0 , 0) ; font-family: monospace ; font-size: 0px&quot;&gt;%3CmxGraphModel%3E%3Croot%3E%3CmxCell%20id%3D%220%22%2F%3E%3CmxCell%20id%3D%221%22%20parent%3D%220%22%2F%3E%3CmxCell%20id%3D%222%22%20value%3D%22MEDEA%22%20style%3D%22rounded%3D0%3BwhiteSpace%3Dwrap%3Bhtml%3D1%3BfillColor%3D%23d5e8d4%3BstrokeColor%3D%2382b366%3B%22%20vertex%3D%221%22%20parent%3D%221%22%3E%3CmxGeometry%20x%3D%221960%22%20y%3D%22880%22%20width%3D%2280%22%20height%3D%2240%22%20as%3D%22geometry%22%2F%3E%3C%2FmxCell%3E%3C%2Froot%3E%3C%2FmxGraphModel%3E&lt;/span&gt;" style="rounded=0;whiteSpace=wrap;html=1;fillColor=#d5e8d4;strokeColor=#82b366;" parent="1" vertex="1">
          <mxGeometry x="2010" y="940" width="80" height="40" as="geometry" />
        </mxCell>
        <mxCell id="CLJaS080JUazORsA9r7G-211" value="ETRA" style="rounded=0;whiteSpace=wrap;html=1;fillColor=#d5e8d4;strokeColor=#82b366;" parent="1" vertex="1">
          <mxGeometry x="2090" y="940" width="80" height="40" as="geometry" />
        </mxCell>
        <mxCell id="CLJaS080JUazORsA9r7G-212" value="TESEO" style="rounded=0;whiteSpace=wrap;html=1;fillColor=#d5e8d4;strokeColor=#82b366;" parent="1" vertex="1">
          <mxGeometry x="2050" y="1010" width="80" height="40" as="geometry" />
        </mxCell>
        <mxCell id="CLJaS080JUazORsA9r7G-215" value="CIRCE" style="rounded=0;whiteSpace=wrap;html=1;" parent="1" vertex="1">
          <mxGeometry x="1880" y="790" width="80" height="40" as="geometry" />
        </mxCell>
        <mxCell id="CLJaS080JUazORsA9r7G-216" value="PASIFAE" style="rounded=0;whiteSpace=wrap;html=1;" parent="1" vertex="1">
          <mxGeometry x="2010" y="790" width="80" height="40" as="geometry" />
        </mxCell>
        <mxCell id="CLJaS080JUazORsA9r7G-217" value="MINOSSE" style="rounded=0;whiteSpace=wrap;html=1;fillColor=#d5e8d4;strokeColor=#82b366;" parent="1" vertex="1">
          <mxGeometry x="2090" y="790" width="80" height="40" as="geometry" />
        </mxCell>
        <mxCell id="CLJaS080JUazORsA9r7G-220" value="..." style="text;html=1;strokeColor=none;fillColor=none;align=center;verticalAlign=middle;whiteSpace=wrap;rounded=0;" parent="1" vertex="1">
          <mxGeometry x="1670" y="840" width="60" height="30" as="geometry" />
        </mxCell>
        <mxCell id="CLJaS080JUazORsA9r7G-224" style="edgeStyle=orthogonalEdgeStyle;curved=1;orthogonalLoop=1;jettySize=auto;html=1;exitX=1;exitY=0.5;exitDx=0;exitDy=0;entryX=0.877;entryY=-0.004;entryDx=0;entryDy=0;entryPerimeter=0;endArrow=classic;endFill=1;" parent="1" source="CLJaS080JUazORsA9r7G-221" target="CLJaS080JUazORsA9r7G-222" edge="1">
          <mxGeometry relative="1" as="geometry" />
        </mxCell>
        <mxCell id="CLJaS080JUazORsA9r7G-221" value="PONTO" style="rounded=0;whiteSpace=wrap;html=1;" parent="1" vertex="1">
          <mxGeometry x="1070" y="90" width="80" height="40" as="geometry" />
        </mxCell>
        <mxCell id="CLJaS080JUazORsA9r7G-225" style="edgeStyle=orthogonalEdgeStyle;curved=1;orthogonalLoop=1;jettySize=auto;html=1;exitX=1;exitY=0.5;exitDx=0;exitDy=0;entryX=0.75;entryY=0;entryDx=0;entryDy=0;endArrow=classic;endFill=1;" parent="1" source="CLJaS080JUazORsA9r7G-222" target="CLJaS080JUazORsA9r7G-125" edge="1">
          <mxGeometry relative="1" as="geometry" />
        </mxCell>
        <mxCell id="CLJaS080JUazORsA9r7G-222" value="NEREO" style="rounded=0;whiteSpace=wrap;html=1;" parent="1" vertex="1">
          <mxGeometry x="1100" y="140" width="80" height="40" as="geometry" />
        </mxCell>
        <mxCell id="CLJaS080JUazORsA9r7G-245" style="edgeStyle=orthogonalEdgeStyle;curved=1;orthogonalLoop=1;jettySize=auto;html=1;exitX=0.75;exitY=0;exitDx=0;exitDy=0;entryX=0.75;entryY=1;entryDx=0;entryDy=0;endArrow=none;endFill=0;dashed=1;" parent="1" source="CLJaS080JUazORsA9r7G-230" target="CLJaS080JUazORsA9r7G-242" edge="1">
          <mxGeometry relative="1" as="geometry" />
        </mxCell>
        <mxCell id="CLJaS080JUazORsA9r7G-230" value="ANTIGONE" style="rounded=0;whiteSpace=wrap;html=1;fillColor=#d5e8d4;strokeColor=#82b366;" parent="1" vertex="1">
          <mxGeometry x="1170" y="1430" width="80" height="40" as="geometry" />
        </mxCell>
        <mxCell id="CLJaS080JUazORsA9r7G-236" style="edgeStyle=orthogonalEdgeStyle;curved=1;orthogonalLoop=1;jettySize=auto;html=1;exitX=0.25;exitY=1;exitDx=0;exitDy=0;entryX=0.5;entryY=0;entryDx=0;entryDy=0;endArrow=classic;endFill=1;" parent="1" source="CLJaS080JUazORsA9r7G-234" target="CLJaS080JUazORsA9r7G-187" edge="1">
          <mxGeometry relative="1" as="geometry" />
        </mxCell>
        <mxCell id="CLJaS080JUazORsA9r7G-237" style="edgeStyle=orthogonalEdgeStyle;curved=1;orthogonalLoop=1;jettySize=auto;html=1;exitX=0.75;exitY=1;exitDx=0;exitDy=0;entryX=0.5;entryY=0;entryDx=0;entryDy=0;endArrow=classic;endFill=1;" parent="1" source="CLJaS080JUazORsA9r7G-234" target="CLJaS080JUazORsA9r7G-188" edge="1">
          <mxGeometry relative="1" as="geometry" />
        </mxCell>
        <mxCell id="CLJaS080JUazORsA9r7G-241" style="edgeStyle=orthogonalEdgeStyle;curved=1;orthogonalLoop=1;jettySize=auto;html=1;exitX=0.75;exitY=1;exitDx=0;exitDy=0;entryX=0.5;entryY=0;entryDx=0;entryDy=0;endArrow=classic;endFill=1;" parent="1" source="CLJaS080JUazORsA9r7G-234" target="CLJaS080JUazORsA9r7G-240" edge="1">
          <mxGeometry relative="1" as="geometry" />
        </mxCell>
        <mxCell id="CLJaS080JUazORsA9r7G-234" value="..." style="text;html=1;strokeColor=none;fillColor=none;align=center;verticalAlign=middle;whiteSpace=wrap;rounded=0;" parent="1" vertex="1">
          <mxGeometry x="1040" y="1190" width="60" height="30" as="geometry" />
        </mxCell>
        <mxCell id="CLJaS080JUazORsA9r7G-238" value="ISMENE" style="rounded=0;whiteSpace=wrap;html=1;fillColor=#d5e8d4;strokeColor=#82b366;" parent="1" vertex="1">
          <mxGeometry x="1080" y="1430" width="80" height="40" as="geometry" />
        </mxCell>
        <mxCell id="CLJaS080JUazORsA9r7G-243" style="edgeStyle=orthogonalEdgeStyle;curved=1;orthogonalLoop=1;jettySize=auto;html=1;exitX=1;exitY=1;exitDx=0;exitDy=0;entryX=0.5;entryY=0;entryDx=0;entryDy=0;endArrow=classic;endFill=1;" parent="1" source="CLJaS080JUazORsA9r7G-240" target="CLJaS080JUazORsA9r7G-242" edge="1">
          <mxGeometry relative="1" as="geometry" />
        </mxCell>
        <mxCell id="CLJaS080JUazORsA9r7G-240" value="CREONTE" style="rounded=0;whiteSpace=wrap;html=1;fillColor=#d5e8d4;strokeColor=#82b366;" parent="1" vertex="1">
          <mxGeometry x="1110" y="1267.5" width="80" height="40" as="geometry" />
        </mxCell>
        <mxCell id="CLJaS080JUazORsA9r7G-242" value="EMONE" style="rounded=0;whiteSpace=wrap;html=1;fillColor=#d5e8d4;strokeColor=#82b366;" parent="1" vertex="1">
          <mxGeometry x="1170" y="1337.5" width="80" height="40" as="geometry" />
        </mxCell>
        <mxCell id="2-a8npppxXHRIihb69ZM-9" style="edgeStyle=orthogonalEdgeStyle;orthogonalLoop=1;jettySize=auto;html=1;exitX=0.75;exitY=0;exitDx=0;exitDy=0;entryX=0;entryY=0.25;entryDx=0;entryDy=0;dashed=1;endArrow=none;endFill=0;curved=1;" parent="1" source="CLJaS080JUazORsA9r7G-244" target="2-a8npppxXHRIihb69ZM-8" edge="1">
          <mxGeometry relative="1" as="geometry">
            <Array as="points">
              <mxPoint x="1292" y="1268" />
              <mxPoint x="1292" y="828" />
            </Array>
          </mxGeometry>
        </mxCell>
        <mxCell id="CLJaS080JUazORsA9r7G-244" value="EURIDICE" style="rounded=0;whiteSpace=wrap;html=1;fillColor=#d5e8d4;strokeColor=#82b366;" parent="1" vertex="1">
          <mxGeometry x="1190" y="1267.5" width="80" height="40" as="geometry" />
        </mxCell>
        <mxCell id="xt7tdtCP4jJ1hD_dmsAQ-17" style="edgeStyle=orthogonalEdgeStyle;orthogonalLoop=1;jettySize=auto;html=1;exitX=0;exitY=1;exitDx=0;exitDy=0;entryX=0.5;entryY=0;entryDx=0;entryDy=0;curved=1;" parent="1" source="xt7tdtCP4jJ1hD_dmsAQ-1" target="xt7tdtCP4jJ1hD_dmsAQ-4" edge="1">
          <mxGeometry relative="1" as="geometry" />
        </mxCell>
        <mxCell id="xt7tdtCP4jJ1hD_dmsAQ-18" style="edgeStyle=orthogonalEdgeStyle;curved=1;orthogonalLoop=1;jettySize=auto;html=1;exitX=0;exitY=1;exitDx=0;exitDy=0;entryX=0.5;entryY=0;entryDx=0;entryDy=0;" parent="1" source="xt7tdtCP4jJ1hD_dmsAQ-1" target="xt7tdtCP4jJ1hD_dmsAQ-5" edge="1">
          <mxGeometry relative="1" as="geometry" />
        </mxCell>
        <mxCell id="xt7tdtCP4jJ1hD_dmsAQ-1" value="PELOPE" style="rounded=0;whiteSpace=wrap;html=1;fillColor=#d5e8d4;strokeColor=#82b366;" parent="1" vertex="1">
          <mxGeometry x="1645" y="1170" width="80" height="40" as="geometry" />
        </mxCell>
        <mxCell id="xt7tdtCP4jJ1hD_dmsAQ-16" style="edgeStyle=orthogonalEdgeStyle;rounded=0;orthogonalLoop=1;jettySize=auto;html=1;exitX=0.5;exitY=1;exitDx=0;exitDy=0;entryX=0.5;entryY=0;entryDx=0;entryDy=0;" parent="1" source="xt7tdtCP4jJ1hD_dmsAQ-2" target="xt7tdtCP4jJ1hD_dmsAQ-1" edge="1">
          <mxGeometry relative="1" as="geometry" />
        </mxCell>
        <mxCell id="xt7tdtCP4jJ1hD_dmsAQ-2" value="TANTALO" style="rounded=0;whiteSpace=wrap;html=1;fillColor=#d5e8d4;strokeColor=#82b366;" parent="1" vertex="1">
          <mxGeometry x="1670" y="1100" width="80" height="40" as="geometry" />
        </mxCell>
        <mxCell id="xt7tdtCP4jJ1hD_dmsAQ-3" value="IPPODAMIA" style="rounded=0;whiteSpace=wrap;html=1;fillColor=#d5e8d4;strokeColor=#82b366;" parent="1" vertex="1">
          <mxGeometry x="1565" y="1170" width="80" height="40" as="geometry" />
        </mxCell>
        <mxCell id="xt7tdtCP4jJ1hD_dmsAQ-19" style="edgeStyle=orthogonalEdgeStyle;curved=1;orthogonalLoop=1;jettySize=auto;html=1;exitX=0;exitY=1;exitDx=0;exitDy=0;entryX=0.5;entryY=0;entryDx=0;entryDy=0;" parent="1" source="xt7tdtCP4jJ1hD_dmsAQ-6" target="xt7tdtCP4jJ1hD_dmsAQ-9" edge="1">
          <mxGeometry relative="1" as="geometry" />
        </mxCell>
        <mxCell id="xt7tdtCP4jJ1hD_dmsAQ-20" style="edgeStyle=orthogonalEdgeStyle;curved=1;orthogonalLoop=1;jettySize=auto;html=1;exitX=1;exitY=1;exitDx=0;exitDy=0;entryX=0.5;entryY=0;entryDx=0;entryDy=0;" parent="1" source="xt7tdtCP4jJ1hD_dmsAQ-4" target="xt7tdtCP4jJ1hD_dmsAQ-8" edge="1">
          <mxGeometry relative="1" as="geometry" />
        </mxCell>
        <mxCell id="xt7tdtCP4jJ1hD_dmsAQ-21" style="edgeStyle=orthogonalEdgeStyle;curved=1;orthogonalLoop=1;jettySize=auto;html=1;exitX=1;exitY=1;exitDx=0;exitDy=0;entryX=0.5;entryY=0;entryDx=0;entryDy=0;" parent="1" source="xt7tdtCP4jJ1hD_dmsAQ-4" target="xt7tdtCP4jJ1hD_dmsAQ-10" edge="1">
          <mxGeometry relative="1" as="geometry" />
        </mxCell>
        <mxCell id="xt7tdtCP4jJ1hD_dmsAQ-4" value="ATREO" style="rounded=0;whiteSpace=wrap;html=1;fillColor=#d5e8d4;strokeColor=#82b366;" parent="1" vertex="1">
          <mxGeometry x="1720" y="1260" width="80" height="40" as="geometry" />
        </mxCell>
        <mxCell id="xt7tdtCP4jJ1hD_dmsAQ-5" value="TIESTE" style="rounded=0;whiteSpace=wrap;html=1;fillColor=#d5e8d4;strokeColor=#82b366;" parent="1" vertex="1">
          <mxGeometry x="1390" y="1260" width="80" height="40" as="geometry" />
        </mxCell>
        <mxCell id="xt7tdtCP4jJ1hD_dmsAQ-6" value="EROPE" style="rounded=0;whiteSpace=wrap;html=1;fillColor=#d5e8d4;strokeColor=#82b366;" parent="1" vertex="1">
          <mxGeometry x="1800" y="1260" width="80" height="40" as="geometry" />
        </mxCell>
        <mxCell id="xt7tdtCP4jJ1hD_dmsAQ-22" style="edgeStyle=orthogonalEdgeStyle;curved=1;orthogonalLoop=1;jettySize=auto;html=1;exitX=0;exitY=1;exitDx=0;exitDy=0;entryX=0.5;entryY=0;entryDx=0;entryDy=0;" parent="1" source="xt7tdtCP4jJ1hD_dmsAQ-7" target="xt7tdtCP4jJ1hD_dmsAQ-11" edge="1">
          <mxGeometry relative="1" as="geometry" />
        </mxCell>
        <mxCell id="Co0x9yr5Barbqaf0OLzz-1" style="edgeStyle=orthogonalEdgeStyle;orthogonalLoop=1;jettySize=auto;html=1;exitX=1;exitY=0.5;exitDx=0;exitDy=0;entryX=0;entryY=0.5;entryDx=0;entryDy=0;dashed=1;curved=1;endArrow=none;endFill=0;" parent="1" source="xt7tdtCP4jJ1hD_dmsAQ-7" target="xt7tdtCP4jJ1hD_dmsAQ-4" edge="1">
          <mxGeometry relative="1" as="geometry" />
        </mxCell>
        <mxCell id="xt7tdtCP4jJ1hD_dmsAQ-7" value="PELOPIA" style="rounded=0;whiteSpace=wrap;html=1;fillColor=#d5e8d4;strokeColor=#82b366;" parent="1" vertex="1">
          <mxGeometry x="1470" y="1260" width="80" height="40" as="geometry" />
        </mxCell>
        <mxCell id="xt7tdtCP4jJ1hD_dmsAQ-8" value="MENELAO" style="rounded=0;whiteSpace=wrap;html=1;fillColor=#d5e8d4;strokeColor=#82b366;" parent="1" vertex="1">
          <mxGeometry x="1780" y="1377.5" width="80" height="40" as="geometry" />
        </mxCell>
        <mxCell id="xt7tdtCP4jJ1hD_dmsAQ-9" value="ANASSIBIA" style="rounded=0;whiteSpace=wrap;html=1;fillColor=#d5e8d4;strokeColor=#82b366;" parent="1" vertex="1">
          <mxGeometry x="1680" y="1377.5" width="80" height="40" as="geometry" />
        </mxCell>
        <mxCell id="xt7tdtCP4jJ1hD_dmsAQ-23" style="edgeStyle=orthogonalEdgeStyle;curved=1;orthogonalLoop=1;jettySize=auto;html=1;exitX=1;exitY=1;exitDx=0;exitDy=0;entryX=0.5;entryY=0;entryDx=0;entryDy=0;" parent="1" source="xt7tdtCP4jJ1hD_dmsAQ-10" target="xt7tdtCP4jJ1hD_dmsAQ-13" edge="1">
          <mxGeometry relative="1" as="geometry" />
        </mxCell>
        <mxCell id="xt7tdtCP4jJ1hD_dmsAQ-10" value="AGAMENNONE" style="rounded=0;whiteSpace=wrap;html=1;fillColor=#d5e8d4;strokeColor=#82b366;" parent="1" vertex="1">
          <mxGeometry x="1970" y="1377.5" width="90" height="40" as="geometry" />
        </mxCell>
        <mxCell id="xt7tdtCP4jJ1hD_dmsAQ-11" value="EGISTO" style="rounded=0;whiteSpace=wrap;html=1;fillColor=#d5e8d4;strokeColor=#82b366;" parent="1" vertex="1">
          <mxGeometry x="1380" y="1377.5" width="80" height="40" as="geometry" />
        </mxCell>
        <mxCell id="xt7tdtCP4jJ1hD_dmsAQ-24" style="edgeStyle=orthogonalEdgeStyle;curved=1;orthogonalLoop=1;jettySize=auto;html=1;exitX=0;exitY=1;exitDx=0;exitDy=0;entryX=0.5;entryY=0;entryDx=0;entryDy=0;" parent="1" source="xt7tdtCP4jJ1hD_dmsAQ-12" target="xt7tdtCP4jJ1hD_dmsAQ-14" edge="1">
          <mxGeometry relative="1" as="geometry" />
        </mxCell>
        <mxCell id="xt7tdtCP4jJ1hD_dmsAQ-25" style="edgeStyle=orthogonalEdgeStyle;curved=1;orthogonalLoop=1;jettySize=auto;html=1;exitX=0;exitY=1;exitDx=0;exitDy=0;entryX=0.5;entryY=0;entryDx=0;entryDy=0;" parent="1" source="xt7tdtCP4jJ1hD_dmsAQ-12" target="xt7tdtCP4jJ1hD_dmsAQ-15" edge="1">
          <mxGeometry relative="1" as="geometry" />
        </mxCell>
        <mxCell id="xt7tdtCP4jJ1hD_dmsAQ-34" style="edgeStyle=orthogonalEdgeStyle;curved=1;orthogonalLoop=1;jettySize=auto;html=1;exitX=0;exitY=1;exitDx=0;exitDy=0;entryX=0.5;entryY=0;entryDx=0;entryDy=0;" parent="1" source="xt7tdtCP4jJ1hD_dmsAQ-12" target="xt7tdtCP4jJ1hD_dmsAQ-33" edge="1">
          <mxGeometry relative="1" as="geometry" />
        </mxCell>
        <mxCell id="xt7tdtCP4jJ1hD_dmsAQ-47" style="edgeStyle=orthogonalEdgeStyle;curved=1;orthogonalLoop=1;jettySize=auto;html=1;exitX=0.25;exitY=0;exitDx=0;exitDy=0;entryX=0.75;entryY=0;entryDx=0;entryDy=0;endArrow=none;endFill=0;dashed=1;" parent="1" source="xt7tdtCP4jJ1hD_dmsAQ-12" target="xt7tdtCP4jJ1hD_dmsAQ-44" edge="1">
          <mxGeometry relative="1" as="geometry">
            <Array as="points">
              <mxPoint x="2083" y="1320" />
              <mxPoint x="1528" y="1320" />
            </Array>
          </mxGeometry>
        </mxCell>
        <mxCell id="xt7tdtCP4jJ1hD_dmsAQ-12" value="CLITENNESTRA" style="rounded=0;whiteSpace=wrap;html=1;fillColor=#d5e8d4;strokeColor=#82b366;" parent="1" vertex="1">
          <mxGeometry x="2060" y="1377.5" width="90" height="40" as="geometry" />
        </mxCell>
        <mxCell id="xt7tdtCP4jJ1hD_dmsAQ-13" value="IFIGENIA" style="rounded=0;whiteSpace=wrap;html=1;fillColor=#d5e8d4;strokeColor=#82b366;" parent="1" vertex="1">
          <mxGeometry x="1850" y="1480" width="80" height="40" as="geometry" />
        </mxCell>
        <mxCell id="xt7tdtCP4jJ1hD_dmsAQ-14" value="ORESTE" style="rounded=0;whiteSpace=wrap;html=1;fillColor=#d5e8d4;strokeColor=#82b366;" parent="1" vertex="1">
          <mxGeometry x="2030" y="1480" width="80" height="40" as="geometry" />
        </mxCell>
        <mxCell id="xt7tdtCP4jJ1hD_dmsAQ-15" value="ELETTRA" style="rounded=0;whiteSpace=wrap;html=1;fillColor=#d5e8d4;strokeColor=#82b366;" parent="1" vertex="1">
          <mxGeometry x="2120" y="1480" width="80" height="40" as="geometry" />
        </mxCell>
        <mxCell id="xt7tdtCP4jJ1hD_dmsAQ-26" value="..." style="text;html=1;strokeColor=none;fillColor=none;align=center;verticalAlign=middle;whiteSpace=wrap;rounded=0;" parent="1" vertex="1">
          <mxGeometry x="1610" y="1220" width="60" height="30" as="geometry" />
        </mxCell>
        <mxCell id="xt7tdtCP4jJ1hD_dmsAQ-28" value="ELENA&lt;br&gt;(di Troia)" style="rounded=0;whiteSpace=wrap;html=1;fillColor=#d5e8d4;strokeColor=#82b366;" parent="1" vertex="1">
          <mxGeometry x="1860" y="1377.5" width="80" height="40" as="geometry" />
        </mxCell>
        <mxCell id="xt7tdtCP4jJ1hD_dmsAQ-31" style="edgeStyle=orthogonalEdgeStyle;curved=1;orthogonalLoop=1;jettySize=auto;html=1;exitX=1;exitY=1;exitDx=0;exitDy=0;" parent="1" source="xt7tdtCP4jJ1hD_dmsAQ-29" target="xt7tdtCP4jJ1hD_dmsAQ-12" edge="1">
          <mxGeometry relative="1" as="geometry">
            <Array as="points">
              <mxPoint x="1950" y="1320" />
              <mxPoint x="2105" y="1320" />
            </Array>
          </mxGeometry>
        </mxCell>
        <mxCell id="xt7tdtCP4jJ1hD_dmsAQ-32" style="edgeStyle=orthogonalEdgeStyle;curved=1;orthogonalLoop=1;jettySize=auto;html=1;exitX=1;exitY=1;exitDx=0;exitDy=0;entryX=0.5;entryY=0;entryDx=0;entryDy=0;" parent="1" source="xt7tdtCP4jJ1hD_dmsAQ-29" target="xt7tdtCP4jJ1hD_dmsAQ-28" edge="1">
          <mxGeometry relative="1" as="geometry" />
        </mxCell>
        <mxCell id="xt7tdtCP4jJ1hD_dmsAQ-29" value="TINDARO" style="rounded=0;whiteSpace=wrap;html=1;fillColor=#d5e8d4;strokeColor=#82b366;" parent="1" vertex="1">
          <mxGeometry x="1870" y="1175" width="80" height="40" as="geometry" />
        </mxCell>
        <mxCell id="HJdVUe0fSs6TukzdH_jO-4" style="edgeStyle=orthogonalEdgeStyle;orthogonalLoop=1;jettySize=auto;html=1;exitX=0;exitY=1;exitDx=0;exitDy=0;curved=1;" parent="1" source="xt7tdtCP4jJ1hD_dmsAQ-30" target="HJdVUe0fSs6TukzdH_jO-2" edge="1">
          <mxGeometry relative="1" as="geometry" />
        </mxCell>
        <mxCell id="HJdVUe0fSs6TukzdH_jO-5" style="edgeStyle=orthogonalEdgeStyle;curved=1;orthogonalLoop=1;jettySize=auto;html=1;exitX=0;exitY=1;exitDx=0;exitDy=0;entryX=0.5;entryY=0;entryDx=0;entryDy=0;" parent="1" source="xt7tdtCP4jJ1hD_dmsAQ-30" target="HJdVUe0fSs6TukzdH_jO-3" edge="1">
          <mxGeometry relative="1" as="geometry" />
        </mxCell>
        <mxCell id="xt7tdtCP4jJ1hD_dmsAQ-30" value="LEDA" style="rounded=0;whiteSpace=wrap;html=1;fillColor=#d5e8d4;strokeColor=#82b366;" parent="1" vertex="1">
          <mxGeometry x="1950" y="1175" width="80" height="40" as="geometry" />
        </mxCell>
        <mxCell id="xt7tdtCP4jJ1hD_dmsAQ-33" value="CRISOTEMI" style="rounded=0;whiteSpace=wrap;html=1;fillColor=#d5e8d4;strokeColor=#82b366;" parent="1" vertex="1">
          <mxGeometry x="1940" y="1480" width="80" height="40" as="geometry" />
        </mxCell>
        <mxCell id="xt7tdtCP4jJ1hD_dmsAQ-42" style="edgeStyle=orthogonalEdgeStyle;curved=1;orthogonalLoop=1;jettySize=auto;html=1;exitX=1;exitY=1;exitDx=0;exitDy=0;entryX=0.5;entryY=0;entryDx=0;entryDy=0;" parent="1" source="xt7tdtCP4jJ1hD_dmsAQ-40" target="xt7tdtCP4jJ1hD_dmsAQ-41" edge="1">
          <mxGeometry relative="1" as="geometry" />
        </mxCell>
        <mxCell id="xt7tdtCP4jJ1hD_dmsAQ-40" value="STROFIO" style="rounded=0;whiteSpace=wrap;html=1;fillColor=#d5e8d4;strokeColor=#82b366;" parent="1" vertex="1">
          <mxGeometry x="1600" y="1377.5" width="80" height="40" as="geometry" />
        </mxCell>
        <mxCell id="xt7tdtCP4jJ1hD_dmsAQ-41" value="PILADE" style="rounded=0;whiteSpace=wrap;html=1;fillColor=#d5e8d4;strokeColor=#82b366;" parent="1" vertex="1">
          <mxGeometry x="1640" y="1480" width="80" height="40" as="geometry" />
        </mxCell>
        <mxCell id="xt7tdtCP4jJ1hD_dmsAQ-46" style="edgeStyle=orthogonalEdgeStyle;curved=1;orthogonalLoop=1;jettySize=auto;html=1;exitX=0;exitY=1;exitDx=0;exitDy=0;entryX=0.5;entryY=0;entryDx=0;entryDy=0;" parent="1" source="xt7tdtCP4jJ1hD_dmsAQ-44" target="xt7tdtCP4jJ1hD_dmsAQ-45" edge="1">
          <mxGeometry relative="1" as="geometry" />
        </mxCell>
        <mxCell id="xt7tdtCP4jJ1hD_dmsAQ-44" value="CLITENNESTRA" style="rounded=0;whiteSpace=wrap;html=1;fillColor=#d5e8d4;strokeColor=#82b366;" parent="1" vertex="1">
          <mxGeometry x="1460" y="1377.5" width="90" height="40" as="geometry" />
        </mxCell>
        <mxCell id="xt7tdtCP4jJ1hD_dmsAQ-45" value="ELENA" style="rounded=0;whiteSpace=wrap;html=1;fillColor=#d5e8d4;strokeColor=#82b366;" parent="1" vertex="1">
          <mxGeometry x="1420" y="1480" width="80" height="40" as="geometry" />
        </mxCell>
        <mxCell id="Co0x9yr5Barbqaf0OLzz-3" value="ZEUS" style="rounded=0;whiteSpace=wrap;html=1;" parent="1" vertex="1">
          <mxGeometry x="1980" y="1145" width="80" height="40" as="geometry" />
        </mxCell>
        <mxCell id="upMYEy9RldOQQddmKR3E-2" value="Crono evira" style="text;html=1;strokeColor=none;fillColor=none;align=center;verticalAlign=middle;whiteSpace=wrap;rounded=0;" parent="1" vertex="1">
          <mxGeometry x="765" y="250" width="90" height="30" as="geometry" />
        </mxCell>
        <mxCell id="upMYEy9RldOQQddmKR3E-3" value="Aletto, Megera e Tisifone" style="text;html=1;strokeColor=none;fillColor=none;align=center;verticalAlign=middle;whiteSpace=wrap;rounded=0;fontSize=9;" parent="1" vertex="1">
          <mxGeometry x="660" y="340" width="80" height="20" as="geometry" />
        </mxCell>
        <mxCell id="HJdVUe0fSs6TukzdH_jO-2" value="CASTORE" style="rounded=0;whiteSpace=wrap;html=1;" parent="1" vertex="1">
          <mxGeometry x="2010" y="1267.5" width="80" height="40" as="geometry" />
        </mxCell>
        <mxCell id="HJdVUe0fSs6TukzdH_jO-3" value="POLLUCE" style="rounded=0;whiteSpace=wrap;html=1;" parent="1" vertex="1">
          <mxGeometry x="2100" y="1267.5" width="80" height="40" as="geometry" />
        </mxCell>
        <mxCell id="HJdVUe0fSs6TukzdH_jO-7" value="Dioscuri" style="text;html=1;strokeColor=none;fillColor=none;align=center;verticalAlign=middle;whiteSpace=wrap;rounded=0;" parent="1" vertex="1">
          <mxGeometry x="2060" y="1240" width="60" height="30" as="geometry" />
        </mxCell>
        <mxCell id="Q-_jw11OQgAD6dahc0xd-1" style="edgeStyle=orthogonalEdgeStyle;rounded=0;orthogonalLoop=1;jettySize=auto;html=1;exitX=0.5;exitY=1;exitDx=0;exitDy=0;entryX=0.163;entryY=-0.05;entryDx=0;entryDy=0;entryPerimeter=0;" parent="1" source="Q-_jw11OQgAD6dahc0xd-2" target="xt7tdtCP4jJ1hD_dmsAQ-3" edge="1">
          <mxGeometry relative="1" as="geometry">
            <mxPoint x="1580" y="1170" as="targetPoint" />
          </mxGeometry>
        </mxCell>
        <mxCell id="Q-_jw11OQgAD6dahc0xd-2" value="ENOMAO" style="rounded=0;whiteSpace=wrap;html=1;fillColor=#d5e8d4;strokeColor=#82b366;" parent="1" vertex="1">
          <mxGeometry x="1520" y="1100" width="80" height="40" as="geometry" />
        </mxCell>
        <mxCell id="8KXKPDtSkPjnYWEbEdFz-1" value="ERMES" style="rounded=0;whiteSpace=wrap;html=1;" parent="1" vertex="1">
          <mxGeometry x="1100" y="980" width="80" height="40" as="geometry" />
        </mxCell>
        <mxCell id="8KXKPDtSkPjnYWEbEdFz-6" style="edgeStyle=orthogonalEdgeStyle;orthogonalLoop=1;jettySize=auto;html=1;exitX=0;exitY=1;exitDx=0;exitDy=0;entryX=0.5;entryY=0;entryDx=0;entryDy=0;curved=1;" parent="1" source="8KXKPDtSkPjnYWEbEdFz-3" target="8KXKPDtSkPjnYWEbEdFz-4" edge="1">
          <mxGeometry relative="1" as="geometry" />
        </mxCell>
        <mxCell id="8KXKPDtSkPjnYWEbEdFz-3" value="DEMETRA" style="rounded=0;whiteSpace=wrap;html=1;" parent="1" vertex="1">
          <mxGeometry x="1180" y="980" width="80" height="40" as="geometry" />
        </mxCell>
        <mxCell id="8KXKPDtSkPjnYWEbEdFz-4" value="PAN" style="rounded=0;whiteSpace=wrap;html=1;" parent="1" vertex="1">
          <mxGeometry x="1180" y="1070" width="80" height="40" as="geometry" />
        </mxCell>
        <mxCell id="2-a8npppxXHRIihb69ZM-1" value="CEFISO" style="rounded=0;whiteSpace=wrap;html=1;" parent="1" vertex="1">
          <mxGeometry x="990" y="785" width="80" height="40" as="geometry" />
        </mxCell>
        <mxCell id="2-a8npppxXHRIihb69ZM-4" style="edgeStyle=orthogonalEdgeStyle;rounded=0;orthogonalLoop=1;jettySize=auto;html=1;exitX=0;exitY=1;exitDx=0;exitDy=0;entryX=0.5;entryY=0;entryDx=0;entryDy=0;" parent="1" source="2-a8npppxXHRIihb69ZM-2" target="2-a8npppxXHRIihb69ZM-3" edge="1">
          <mxGeometry relative="1" as="geometry" />
        </mxCell>
        <mxCell id="2-a8npppxXHRIihb69ZM-2" value="LIRIOPE&lt;br&gt;(ninfa)" style="rounded=0;whiteSpace=wrap;html=1;" parent="1" vertex="1">
          <mxGeometry x="1070" y="785" width="80" height="40" as="geometry" />
        </mxCell>
        <mxCell id="2-a8npppxXHRIihb69ZM-3" value="NARCISO" style="rounded=0;whiteSpace=wrap;html=1;" parent="1" vertex="1">
          <mxGeometry x="1030" y="858" width="80" height="40" as="geometry" />
        </mxCell>
        <mxCell id="2-a8npppxXHRIihb69ZM-5" value="CALLIOPE" style="rounded=0;whiteSpace=wrap;html=1;" parent="1" vertex="1">
          <mxGeometry x="1490" y="745" width="80" height="40" as="geometry" />
        </mxCell>
        <mxCell id="2-a8npppxXHRIihb69ZM-6" style="edgeStyle=orthogonalEdgeStyle;rounded=0;orthogonalLoop=1;jettySize=auto;html=1;exitX=0;exitY=1;exitDx=0;exitDy=0;entryX=0.5;entryY=0;entryDx=0;entryDy=0;" parent="1" target="2-a8npppxXHRIihb69ZM-7" edge="1">
          <mxGeometry relative="1" as="geometry">
            <mxPoint x="1530" y="785" as="sourcePoint" />
          </mxGeometry>
        </mxCell>
        <mxCell id="2-a8npppxXHRIihb69ZM-7" value="ORFEO" style="rounded=0;whiteSpace=wrap;html=1;" parent="1" vertex="1">
          <mxGeometry x="1490" y="818" width="80" height="40" as="geometry" />
        </mxCell>
        <mxCell id="2-a8npppxXHRIihb69ZM-8" value="EURIDICE" style="rounded=0;whiteSpace=wrap;html=1;fillColor=#d5e8d4;strokeColor=#82b366;" parent="1" vertex="1">
          <mxGeometry x="1410" y="818" width="80" height="40" as="geometry" />
        </mxCell>
        <mxCell id="4jMDUg-haCB-kqzPpa75-1" value="morta Erope, sposa Pelopia e cresce Egisto" style="text;html=1;strokeColor=none;fillColor=none;align=center;verticalAlign=middle;whiteSpace=wrap;rounded=0;" vertex="1" parent="1">
          <mxGeometry x="1620" y="1287.5" width="150" height="12.5" as="geometry" />
        </mxCell>
      </root>
    </mxGraphModel>
  </diagram>
</mxfile>
